<?xml version="1.0" encoding="UTF-8"?>
<!-- Generator: Adobe Illustrator 22.0.0, SVG Export Plug-In . SVG Version: 6.00 Build 0)  -->
<svg version="1.1" id="Ebene_1" xmlns="http://www.w3.org/2000/svg" xmlns:xlink="http://www.w3.org/1999/xlink" x="0px" y="0px" viewBox="0 0 539 660" style="enable-background:new 0 0 539 660;" xml:space="preserve">
<style type="text/css">
	.st0{fill:#FFFFFF;}
</style>
<path id="Fill-18" class="st0" d="M186.6,85.2C185.1,39.7,221,1.6,266.7,0c45.8-1.5,84.1,34.2,85.7,79.7  c1.5,45.6-34.4,83.7-80.1,85.2C226.5,166.4,188.2,130.7,186.6,85.2"/>
<path id="Fill-20" class="st0" d="M306.1,354.5c-20.4-20.9-21.3-53.5-1.8-72.6L451,137.3c19.4-19.2,51.7-17.8,72.1,3.2  c20.4,21,21.3,53.6,1.9,72.7L378.2,357.8C358.8,377,326.5,375.6,306.1,354.5"/>
<path id="Fill-22" class="st0" d="M232.9,354.5c20.4-20.9,21.3-53.5,1.8-72.6L88,137.3c-19.4-19.2-51.7-17.7-72.1,3.2  c-20.4,21-21.3,53.6-1.9,72.7l146.8,144.6C180.2,376.9,212.4,375.5,232.9,354.5"/>
<path id="Fill-24" class="st0" d="M232.9,429.2c20.4,20.9,21.2,53.5,1.8,72.6L88,646.5c-19.4,19.2-51.7,17.7-72.2-3.2  c-20.4-21-21.3-53.5-1.9-72.7L160.8,426C180.2,406.8,212.5,408.2,232.9,429.2"/>
<path id="Fill-26" class="st0" d="M306.1,429.2c-20.4,20.9-21.3,53.5-1.8,72.6L451,646.5c19.4,19.2,51.7,17.7,72.1-3.2  c20.4-21,21.3-53.5,1.9-72.7L378.2,426C358.8,406.8,326.5,408.2,306.1,429.2"/>
</svg>