<?xml version="1.0" encoding="UTF-8" standalone="no"?>
<svg
   xmlns:dc="http://purl.org/dc/elements/1.1/"
   xmlns:cc="http://creativecommons.org/ns#"
   xmlns:rdf="http://www.w3.org/1999/02/22-rdf-syntax-ns#"
   xmlns:svg="http://www.w3.org/2000/svg"
   xmlns="http://www.w3.org/2000/svg"
   id="svg4509"
   version="1.1"
   viewBox="0 0 674 660"
   height="660px"
   width="674px">
  <metadata
     id="metadata4515">
    <rdf:RDF>
      <cc:Work
         rdf:about="">
        <dc:format>image/svg+xml</dc:format>
        <dc:type
           rdf:resource="http://purl.org/dc/dcmitype/StillImage" />
        <dc:title>laufzeit</dc:title>
      </cc:Work>
    </rdf:RDF>
  </metadata>
  <defs
     id="defs4513" />
  <!-- Generator: Sketch 52.6 (67491) - http://www.bohemiancoding.com/sketch -->
  <title
     id="title4501">laufzeit</title>
  <desc
     id="desc4503">Created with Sketch.</desc>
  <g
     style="fill:#ffffff;fill-opacity:1"
     fill-rule="evenodd"
     fill="none"
     stroke-width="1"
     stroke="none"
     id="Page-1">
    <g
       style="fill:#ffffff;fill-opacity:1"
       fill-rule="nonzero"
       fill="#002F5F"
       transform="translate(-6.000000, -4.000000)"
       id="Artboard-Copy-68">
      <g
         style="fill:#ffffff;fill-opacity:1"
         id="laufzeit">
        <path
           style="fill:#ffffff;fill-opacity:1"
           id="Shape"
           d="m 465.04,125.824 c 7.512,-5.408 16.52,-8.24 26.952,-8.24 31.368,0 57.44,27.296 57.44,50.24 V 328 c 0,6.62742 -5.37258,12 -12,12 -6.62742,0 -12,-5.37258 -12,-12 V 167.832 c 0,-3 -3.256,-9.76 -8.496,-15.256 -6.64,-6.952 -15.168,-10.992 -24.944,-10.992 -13.168,0 -21.664,8.48 -26.616,29.056 -0.096,0.392 -0.208,0.776 -0.336,1.152 v 133.544 c 0,6.62742 -5.37258,12 -12,12 -6.62742,0 -12,-5.37258 -12,-12 v -185.88 c -3.112,-26.64 -11.52,-37.424 -25.48,-37.424 -16.392,0 -26.848,7.224 -33.344,23.224 -0.56,1.36 -1.328,2.56 -2.264,3.584 v 195.328 c 0,6.62742 -5.37258,12 -12,12 -6.62742,0 -12,-5.37258 -12,-12 V 63.064 c 0,-21.52 -16.768,-34.28 -35.168,-34.28 -17.64,0 -25.944,6.288 -25.944,25.936 v 54.624 c 0,0.904 -0.096,1.784 -0.288,2.632 V 304.32 c 0,6.62742 -5.37258,12 -12,12 -6.62742,0 -12,-5.37258 -12,-12 V 111.808 c 0,-20.288 -15.736,-33.728 -36.192,-33.728 -23.072,0 -31.352,7.024 -31.352,33.728 v 267.04 c 0,6.62742 -5.37258,12 -12,12 -6.62742,0 -12,-5.37258 -12,-12 v -267.04 c 0,-40.92 19.816,-57.728 55.352,-57.728 13.648,0 26.32,3.992 36.48,11.12 V 54.72 c 0,-34.576 20.272,-49.936 49.944,-49.936 30.448,0 59.168,21.848 59.168,58.28 v 5.976 c 9.672,-7.264 21.64,-11.008 35.608,-11.008 28.592,0 45.152,21.528 49.408,59.4 l 0.072,1.344 z m -92.976,502.84 c 6.62742,0 12,5.37258 12,12 0,6.62742 -5.37258,12 -12,12 H 260.688 c -67.984,0 -135.328,-58.504 -168.752,-120.48 -3.84,-7.144 -14.664,-27.552 -15.968,-30 -5.152,-9.584 -8.784,-15.976 -12.272,-21.464 -4.552,-7.152 -8.8,-12.608 -13.568,-17.384 -2.417966,-2.37565 -4.92649,-4.65734 -7.52,-6.84 l -2.88,-2.448 -3,-2.52 C 15.384,433.512 6.584,422.088 6.584,403.488 c 0,-29.272 33.944,-49.688 69.184,-49.688 22.128,0 44.368,14.416 67.016,41.6 l 76.464,83.968 c 2.90153,3.1674 3.88875,7.64411 2.58854,11.7381 -1.30022,4.09398 -4.68954,7.18074 -8.88692,8.09358 -4.19738,0.91285 -8.56255,-0.48747 -11.44562,-3.67168 l -76.808,-84.36 C 105.808,388.504 89.28,377.8 75.768,377.8 c -23.704,0 -45.184,12.912 -45.184,25.68 0,8.928 5.56,16.16 21.624,29.704 l 2.984,2.512 3.024,2.568 c 3.584,3.072 6.352,5.576 8.88,8.104 6.104,6.104 11.416,12.928 16.848,21.472 3.88,6.096 7.76,12.936 13.168,23 1.36,2.52 12.16,22.912 15.952,29.952 29.68,55.04 90.496,107.872 147.624,107.872 z m -129.2,-201.016 c -6.62742,0 -12,-5.37258 -12,-12 0,-6.62742 5.37258,-12 12,-12 70.592,0 98.096,18.304 120.104,89.52 1.95509,6.3336 -1.5944,13.05291 -7.928,15.008 -6.3336,1.95509 -13.05291,-1.5944 -15.008,-7.928 -18.744,-60.672 -36.664,-72.6 -97.168,-72.6 z M 536,640 c 66.272,0 120,-53.728 120,-120 0,-66.272 -53.728,-120 -120,-120 -66.272,0 -120,53.728 -120,120 0,66.272 53.728,120 120,120 z m 0,24 c -79.528,0 -144,-64.472 -144,-144 0,-79.528 64.472,-144 144,-144 79.528,0 144,64.472 144,144 0,79.528 -64.472,144 -144,144 z" />
      </g>
    </g>
  </g>
  <style
     type="text/css"
     id="style5060">
	.st0{fill:#002956;}
</style>
  <g
     style="fill:#ffffff;fill-opacity:1"
     transform="matrix(3.3681385,0,0,3.312272,352.56104,350.72189)"
     id="g5086">
    <g
       style="fill:#ffffff;fill-opacity:1"
       id="Hilfslinien">
</g>
    <g
       style="fill:#ffffff;fill-opacity:1"
       id="Draft-Vorlage">
</g>
    <g
       style="fill:#ffffff;fill-opacity:1"
       transform="matrix(2.3651715,0,0,2.3651715,-65.188641,-48.738873)"
       id="ICON">
	
	<path
   style="fill:#ffffff;fill-opacity:1"
   class="st0"
   d="m 50.087765,53.2048 c -0.8,0 -1.494002,-0.700024 -1.5,-1.5 L 48.5,40 c -0.006,-0.799977 0.7,-1.5 1.5,-1.5 0.8,0 1.494002,0.700023 1.5,1.5 l 0.08776,11.7048 c 0.006,0.799976 -0.7,1.5 -1.5,1.5 z"
   id="path5066" />

	<circle
   style="fill:#ffffff;fill-opacity:1"
   class="st0"
   cx="50"
   cy="32.5"
   r="2"
   id="circle5068" />

</g>
  </g>
</svg>
