<svg width="284" height="106" viewBox="0 0 284 106" fill="none" xmlns="http://www.w3.org/2000/svg">
<g clip-path="url(#clip0)">
<path d="M0 0H41.2C64.8 0 92.8 17.7 92.8 53C92.8 85.4 64.8 106 41.2 106H0V0ZM63.3 53C63.3 30.9 45.6 26.5 29.4 26.5V79.5C45.6 79.5 63.3 75.1 63.3 53Z" fill="#148DEA"/>
<path d="M104.4 0H133.9V39.8H134.2L157.5 0H191.4L160.5 48.6L194.4 106.1H160.5L134.3 60.4H134V106.1H104.5V0H104.4Z" fill="#148DEA"/>
<path d="M202.4 0H245.1C264.3 0 277.5 11.5 277.5 26.5C277.5 36.5 274 45.1 266 47.6V47.9C272.6 50.4 283.4 59.4 283.4 73.7C283.4 94.9 267.2 106.1 249.5 106.1H202.4V0ZM240.9 42.4C245.9 42.4 250.2 39.2 250.2 33.1C250.2 27.4 245.9 23.8 240.9 23.8H231.9V42.4H240.9ZM243.5 80.8C249.4 80.8 252.8 76.1 252.8 70.2C252.8 64.3 248.1 59.6 242.2 59.6H231.9V80.8H243.5Z" fill="#148DEA"/>
</g>
<defs>
<clipPath id="clip0">
<path d="M0 0H284V106H0V0Z" fill="white"/>
</clipPath>
</defs>
</svg>
