<?xml version="1.0" standalone="no"?>
<!DOCTYPE svg PUBLIC "-//W3C//DTD SVG 1.1//EN" "http://www.w3.org/Graphics/SVG/1.1/DTD/svg11.dtd" >
<svg xmlns="http://www.w3.org/2000/svg" xmlns:xlink="http://www.w3.org/1999/xlink" version="1.1">
<metadata>
Created by FontForge 20201107 at Wed Jan 17 13:07:18 2018
 By 
Copyright (c) 2015 by Fontsmith Ltd. All rights reserved. This font may not be altered in any way without prior permission of Fontsmith Ltd.
</metadata>
<defs>
<font id="INGMe-Bold" horiz-adv-x="350" >
  <font-face 
    font-family="ING Me"
    font-weight="700"
    font-stretch="normal"
    units-per-em="1000"
    panose-1="2 0 8 3 4 0 0 2 0 4"
    ascent="750"
    descent="-250"
    x-height="528"
    cap-height="720"
    bbox="-238 -333 1279 978"
    underline-thickness="92"
    underline-position="-100"
    unicode-range="U+000D-F6C3"
  />
<missing-glyph horiz-adv-x="500" 
d="M410 -250h-317v1000h317v-1000zM168 683v-33h65v-37h-66v-33h166v33h-66v37h66v33h-165zM167 554v-104h166v34h-66v70h-100zM233 484h-33v36h33v-36zM167 423v-33h66v-37h-66v-33h100v70h66v33h-166zM300 363v-66h-133v-34h166v100h-33zM233 241v-56h34v23h33v-47h-100
v80h-33v-113h166v113h-100zM167 68v-113h166v113h-166zM300 -12h-100v47h100v-47zM167 -68v-33h70l-70 -47v-33h166v33h-102l70 47h32v33h-166z" />
    <glyph glyph-name=".notdef" horiz-adv-x="500" 
d="M410 -250h-317v1000h317v-1000zM168 683v-33h65v-37h-66v-33h166v33h-66v37h66v33h-165zM167 554v-104h166v34h-66v70h-100zM233 484h-33v36h33v-36zM167 423v-33h66v-37h-66v-33h100v70h66v33h-166zM300 363v-66h-133v-34h166v100h-33zM233 241v-56h34v23h33v-47h-100
v80h-33v-113h166v113h-100zM167 68v-113h166v113h-166zM300 -12h-100v47h100v-47zM167 -68v-33h70l-70 -47v-33h166v33h-102l70 47h32v33h-166z" />
    <glyph glyph-name="uni0000" horiz-adv-x="0" 
 />
    <glyph glyph-name="uni0000" horiz-adv-x="0" 
 />
    <glyph glyph-name="uni000D" unicode="&#xd;" horiz-adv-x="240" 
 />
    <glyph glyph-name="space" unicode=" " horiz-adv-x="240" 
 />
    <glyph glyph-name="exclam" unicode="!" horiz-adv-x="300" 
d="M203 250q0 -13 -15 -13h-74q-15 0 -15 13l-16 452q0 18 19 18h96q19 0 19 -18zM97 0q-20 0 -20 19v104q0 19 20 19h105q21 0 21 -19v-104q0 -19 -21 -19h-105z" />
    <glyph glyph-name="quotedbl" unicode="&#x22;" horiz-adv-x="423" 
d="M89 441q-11 0 -14.5 4t-3.5 13l-11 245q0 9 3.5 13t14.5 4h79q11 0 14.5 -4t3.5 -13l-12 -245q-1 -9 -4.5 -13t-13.5 -4h-56zM277 441q-11 0 -14.5 4t-3.5 13l-11 245q0 9 3.5 13t14.5 4h79q11 0 14.5 -4t3.5 -13l-12 -245q-1 -9 -4.5 -13t-13.5 -4h-56z" />
    <glyph glyph-name="numbersign" unicode="#" horiz-adv-x="583" 
d="M310 73q-10 0 -12.5 4t-0.5 12l27 132h-124l-29 -134q-2 -9 -5.5 -11.5t-14.5 -2.5h-61q-10 0 -12.5 4t-0.5 12l28 132h-54q-16 0 -16 17v51q0 17 16 17h73l23 111h-54q-16 0 -16 17v51q0 17 16 17h71l28 131q2 9 5.5 11.5t14.5 2.5h60q10 0 12.5 -4t0.5 -12l-27 -129
h125l29 131q2 9 5.5 11.5t14.5 2.5h60q10 0 12.5 -4t0.5 -12l-28 -129h54q16 0 16 -17v-51q0 -17 -16 -17h-71l-24 -111h54q16 0 16 -17v-51q0 -17 -16 -17h-72l-28 -134q-2 -9 -5.5 -11.5t-14.5 -2.5h-60zM240 417l-23 -111h125l23 111h-125z" />
    <glyph glyph-name="dollar" unicode="$" horiz-adv-x="583" 
d="M321 815q17 0 17 -16v-77q41 -2 82 -15.5t67 -31.5q11 -7 11 -16q0 -5 -5 -15l-28 -49q-7 -11 -15 -11q-6 0 -14 4q-55 27 -98 32v-201q98 -49 138 -89q53 -53 53 -125q0 -78 -50.5 -133.5t-140.5 -71.5v-81q0 -16 -17 -16h-37q-17 0 -17 16v79q-61 2 -112.5 20.5
t-80.5 42.5q-8 6 -8 15q0 5 4 15l25 51q6 14 18 14q7 0 14 -4q72 -47 140 -51v219q-41 20 -72 38t-57 40q-66 56 -66 134q0 81 56 132q54 49 139 57v78q0 16 17 16h37zM267 617q-33 -7 -52.5 -26t-19.5 -52q0 -26 18 -46.5t54 -38.5v163zM390.5 248.5q-18.5 21.5 -52.5 38.5
v-180q32 9 51.5 30.5t19.5 56.5q0 33 -18.5 54.5z" />
    <glyph glyph-name="percent" unicode="%" horiz-adv-x="939" 
d="M98 368q-48 53 -48 149q0 103 47 158t130 55q77 0 122 -49q47 -52 47 -149q0 -103 -47 -158t-130 -55q-76 0 -121 49zM364 9q-4 -9 -7.5 -12t-12.5 -3h-75q-9 0 -12.5 4t0.5 12l322 702q4 9 7.5 12t12.5 3h75q9 0 12.5 -4t-0.5 -12zM275.5 432.5q18.5 32.5 18.5 95.5
q0 121 -68 121q-36 0 -55 -32.5t-19 -95.5q0 -121 68 -121q37 0 55.5 32.5zM591 39q-48 53 -48 149q0 103 47 158t130 55q77 0 122 -49q47 -52 47 -149q0 -103 -47 -158t-130 -55q-76 0 -121 49zM768.5 103.5q18.5 32.5 18.5 95.5q0 121 -68 121q-36 0 -55 -32.5t-19 -95.5
q0 -121 68 -121q37 0 55.5 32.5z" />
    <glyph glyph-name="ampersand" unicode="&#x26;" horiz-adv-x="705" 
d="M544.5 400.5q4.5 4.5 15.5 4.5h65q13 0 17 -5.5t3 -15.5q-11 -114 -62 -207l100 -92q8 -8 8 -14q0 -7 -7 -14l-50 -52q-8 -8 -16 -8q-6 0 -14 6l-89 81q-45 -45 -102.5 -69.5t-126.5 -24.5q-121 0 -190 61q-68 60 -68 154q0 66 39.5 115t109.5 80q-33 36 -49 72.5
t-16 77.5q0 85 65 135q29 22 65 33.5t74 11.5q79 0 135 -45q27 -22 41.5 -53t14.5 -67q0 -57 -33.5 -106t-108.5 -82l140 -128q28 63 34 137q1 10 5.5 14.5zM247 498.5q15 -25.5 51 -59.5q54 26 78 60q17 24 17 57q0 32 -21 53t-58 21q-34 0 -58 -21.5t-24 -57.5
q0 -27 15 -52.5zM440 154l-199 183q-41 -20 -64 -53t-23 -73q0 -52 38.5 -85t101.5 -33q85 0 146 61z" />
    <glyph glyph-name="quotesingle" unicode="'" horiz-adv-x="235" 
d="M89 441q-11 0 -14.5 4t-3.5 13l-11 245q0 9 3.5 13t14.5 4h79q11 0 14.5 -4t3.5 -13l-12 -245q-1 -9 -4.5 -13t-13.5 -4h-56z" />
    <glyph glyph-name="parenleft" unicode="(" horiz-adv-x="338" 
d="M116 578q44 114 109 185q8 8 15 8t12 -4l48 -29q11 -6 11 -15q0 -7 -6 -16q-109 -170 -109 -396t109 -396q6 -9 6 -16q0 -9 -11 -15l-49 -29q-5 -4 -12 -4t-15 8q-63 69 -108 185q-50 127 -50 267q0 139 50 267z" />
    <glyph glyph-name="parenright" unicode=")" horiz-adv-x="338" 
d="M223 44q-44 -114 -109 -185q-8 -8 -15 -8t-12 4l-49 29q-11 6 -11 15q0 7 6 16q109 170 109 396t-109 396q-6 9 -6 16q0 9 11 15l48 29q5 4 12 4t15 -8q66 -73 110 -185q49 -126 49 -267q0 -143 -49 -267z" />
    <glyph glyph-name="asterisk" unicode="*" horiz-adv-x="413" 
d="M263 531l80 -89q5 -7 5 -10t-7 -9l-52 -40q-5 -5 -9 -5q-5 0 -11 9l-65 101l-61 -101q-5 -8 -11 -8q-5 0 -9 4l-52 40q-7 6 -7 9t5 10l76 89l-111 28q-16 4 -10 19l21 60q3 9 6 11t11 -1l106 -45l-10 114v2q0 11 13 11h66q14 0 13 -13l-10 -114l111 45q6 2 7 2
q4 0 6 -3.5t4 -8.5l21 -60l2 -8q0 -8 -12 -11z" />
    <glyph glyph-name="plus" unicode="+" horiz-adv-x="582" 
d="M339 402h186q16 0 16 -17v-63q0 -17 -16 -17h-186v-189q0 -16 -17 -16h-63q-17 0 -17 16v189h-185q-16 0 -16 17v63q0 17 16 17h185v188q0 16 17 16h63q17 0 17 -16v-188z" />
    <glyph glyph-name="comma" unicode="," horiz-adv-x="240" 
d="M76 -169q-19 0 -16 18l31 152l-25 12q-11 5 -15 11.5t-4 21.5v77q0 19 20 19h105q21 0 21 -19v-53q0 -34 -4.5 -56t-16.5 -53l-41 -112q-6 -12 -9.5 -15t-14.5 -3h-31z" />
    <glyph glyph-name="hyphen" unicode="-" horiz-adv-x="387" 
d="M349 261q0 -17 -16 -17h-279q-16 0 -16 17v65q0 17 16 17h279q16 0 16 -17v-65z" />
    <glyph glyph-name="period" unicode="." horiz-adv-x="240" 
d="M67 0q-20 0 -20 19v104q0 19 20 19h105q21 0 21 -19v-104q0 -19 -21 -19h-105z" />
    <glyph glyph-name="slash" unicode="/" horiz-adv-x="353" 
d="M129 9q-4 -15 -20 -15h-86q-16 0 -12 16l213 702q5 15 20 15h86q16 0 12 -16z" />
    <glyph glyph-name="zero" unicode="0" horiz-adv-x="583" 
d="M104 80q-64 90 -64 266q0 187 67.5 285.5t192.5 98.5q116 0 180 -89.5t64 -266.5q0 -186 -67 -285t-193 -99q-116 0 -180 90zM385.5 162.5q32.5 70.5 32.5 205.5q0 260 -122 260q-65 0 -97.5 -70.5t-32.5 -204.5q0 -261 122 -261q65 0 97.5 70.5z" />
    <glyph glyph-name="one" unicode="1" horiz-adv-x="583" 
d="M359 720q15 0 15 -15v-608h128q15 0 15 -15v-67q0 -15 -15 -15h-390q-15 0 -15 15v67q0 15 15 15h139v493l-128 -67q-6 -3 -11 -3q-10 0 -14 10l-28 56q-2 3 -2 10q0 11 11 16l175 92q19 9 31.5 12.5t32.5 3.5h41z" />
    <glyph glyph-name="two" unicode="2" horiz-adv-x="583" 
d="M481 104q15 0 15 -15v-74q0 -15 -15 -15h-409q-11 0 -14.5 3.5t-3.5 12.5v48q0 98 79 191q36 42 73 75q52 47 81 76t49 58q22 32 22 70q0 47 -28 71t-77 24q-69 0 -145 -48q-6 -3 -11 -3q-8 0 -13 8l-31 51q-3 6 -3 10q0 8 13 18q39 30 91.5 47.5t105.5 17.5
q116 0 174 -60q49 -52 49 -135q0 -77 -76 -162q-29 -33 -72 -71q-93 -82 -130 -132q-24 -33 -27 -66h303z" />
    <glyph glyph-name="three" unicode="3" horiz-adv-x="583" 
d="M465 720q17 0 17 -16v-33q0 -28 -9 -46q-11 -22 -33 -48l-137 -165q93 -8 149 -56q58 -53 58 -141q0 -106 -73 -168q-33 -28 -79.5 -42.5t-101.5 -14.5q-60 0 -114.5 15.5t-89.5 40.5q-9 6 -9 14q0 4 3 10l27 57q4 10 13 10q6 0 9 -2q41 -21 78 -32.5t79 -11.5
q59 0 95.5 31t36.5 86q0 65 -45 92q-38 22 -116 22h-41q-9 0 -12 3t-3 11v40q0 17 3 25t12 20l161 195h-249q-15 0 -15 15v74q0 15 15 15h371z" />
    <glyph glyph-name="four" unicode="4" horiz-adv-x="583" 
d="M235 704q5 10 10 13t16 3h85q14 0 14 -9l-2 -8l-189 -432h167v158q0 15 15 15h92q15 0 15 -15v-158h73q15 0 15 -15v-73q0 -15 -15 -15h-73v-153q0 -15 -15 -15h-92q-15 0 -15 15v153h-280q-15 0 -15 15v41q0 21 1.5 30.5t7.5 23.5z" />
    <glyph glyph-name="five" unicode="5" horiz-adv-x="583" 
d="M295 448q101 0 158 -60t57 -156q0 -115 -75 -179q-36 -31 -85 -47t-107 -16q-53 0 -101.5 12.5t-82.5 33.5q-9 5 -9 13q0 5 3 11l27 57q4 10 13 10q6 0 9 -2q70 -34 146 -34q66 0 103 40q34 35 34 95q0 128 -134 128q-63 0 -145 -22q-3 -1 -7 -1q-11 0 -11 13v361
q0 15 15 15h364q15 0 15 -15v-74q0 -15 -15 -15h-265v-179q40 11 93 11z" />
    <glyph glyph-name="six" unicode="6" horiz-adv-x="583" 
d="M114 81q-54 80 -54 225q0 90 18 167.5t54 133.5q36 59 90.5 91t124.5 32q75 0 138 -39q10 -6 10 -13q0 -3 -5 -15l-24 -48q-4 -9 -13 -9q-5 0 -11 3q-45 22 -91 22q-76 0 -115 -60q-33 -49 -45 -147q28 18 66 29.5t73 11.5q48 0 86.5 -16.5t66.5 -47.5q26 -30 40 -71.5
t14 -90.5q0 -51 -16.5 -96.5t-46.5 -78.5q-32 -35 -76.5 -54.5t-97.5 -19.5q-125 0 -186 91zM385 132q29 38 29 99q0 60 -28 97.5t-83 37.5q-29 0 -61 -8.5t-57 -22.5v-29q0 -99 27 -154q30 -62 92 -62q49 0 81 42z" />
    <glyph glyph-name="seven" unicode="7" horiz-adv-x="583" 
d="M504 720q15 0 15 -15v-47q0 -14 -3.5 -27t-11.5 -34l-239 -580q-4 -9 -10 -13t-17 -4h-90q-16 0 -16 9q0 4 3 10l259 597h-307q-15 0 -15 15v74q0 15 15 15h417z" />
    <glyph glyph-name="eight" unicode="8" horiz-adv-x="583" 
d="M191.5 1.5q-42.5 12.5 -74.5 36.5q-34 25 -53 62.5t-19 84.5q0 64 34.5 111t93.5 75q-45 25 -70.5 66.5t-25.5 99.5q0 43 17.5 79t48.5 61q30 25 71 38.5t86 13.5q92 0 151 -47q63 -50 63 -131q0 -51 -29.5 -93t-78.5 -70q61 -29 92 -70q40 -52 40 -119
q0 -50 -19.5 -89.5t-55.5 -66.5q-34 -27 -81 -40.5t-100 -13.5q-48 0 -90.5 12.5zM369 479q26 31 26 66q0 38 -28.5 62.5t-70.5 24.5q-41 0 -69 -25q-29 -26 -29 -61q0 -38 35 -70q24 -23 78 -45q36 21 58 48zM377 118q37 29 37 74q0 46 -48 82q-22 15 -48 27l-53 24
q-45 -24 -71 -58t-26 -74q0 -48 36 -76q35 -27 85 -27q52 0 88 28z" />
    <glyph glyph-name="nine" unicode="9" horiz-adv-x="583" 
d="M335.5 282.5q-38.5 -11.5 -74.5 -11.5q-102 0 -160 64q-28 30 -42 70t-14 86q0 50 16 93.5t46 76.5q31 33 74 51t96 18q130 0 193 -94q54 -80 54 -222q0 -87 -16 -163t-49 -133q-35 -61 -90 -94.5t-128 -33.5q-48 0 -89 10.5t-68 29.5q-10 6 -10 13q0 4 5 16l24 48
q5 9 13 9q5 0 11 -3q23 -11 51.5 -17.5t51.5 -6.5q85 0 125 62q35 54 41 161q-22 -18 -60.5 -29.5zM400 422q0 96 -27 149q-33 59 -92 59q-52 0 -83 -38q-29 -37 -29 -90q0 -59 28 -93q30 -40 92 -40q25 0 55.5 8.5t55.5 20.5v24z" />
    <glyph glyph-name="colon" unicode=":" horiz-adv-x="240" 
d="M67 365q-20 0 -20 19v104q0 19 20 19h105q21 0 21 -19v-104q0 -19 -21 -19h-105zM67 0q-20 0 -20 19v104q0 19 20 19h105q21 0 21 -19v-104q0 -19 -21 -19h-105z" />
    <glyph glyph-name="semicolon" unicode=";" horiz-adv-x="240" 
d="M67 365q-20 0 -20 19v104q0 19 20 19h105q21 0 21 -19v-104q0 -19 -21 -19h-105zM76 -169q-19 0 -16 18l31 152l-25 12q-11 5 -15 11.5t-4 21.5v77q0 19 20 19h105q21 0 21 -19v-53q0 -34 -4.5 -56t-16.5 -53l-41 -112q-6 -12 -9.5 -15t-14.5 -3h-31z" />
    <glyph glyph-name="less" unicode="&#x3c;" horiz-adv-x="582" 
d="M55 376q0 11 3 16t10 9l402 234q5 4 12 4q8 0 12 -9l28 -55q4 -7 4 -14q0 -8 -9 -13l-339 -193l339 -193q9 -4 9 -13q0 -7 -4 -14l-28 -55q-4 -9 -12 -9q-7 0 -12 4l-402 234q-7 4 -10 9t-3 16v42z" />
    <glyph glyph-name="equal" unicode="=" horiz-adv-x="582" 
d="M57 418q-16 0 -16 17v63q0 17 16 17h468q16 0 16 -17v-63q0 -17 -16 -17h-468zM57 192q-16 0 -16 17v63q0 17 16 17h468q16 0 16 -17v-63q0 -17 -16 -17h-468z" />
    <glyph glyph-name="greater" unicode="&#x3e;" horiz-adv-x="582" 
d="M527 334q0 -11 -3 -16t-10 -9l-402 -234q-5 -4 -12 -4t-12 9l-28 55q-4 7 -4 14q0 9 9 13l339 193l-339 193q-9 5 -9 13q0 7 4 14l28 55q5 9 12 9t12 -4l402 -234q7 -4 10 -9t3 -16v-42z" />
    <glyph glyph-name="question" unicode="?" horiz-adv-x="447" 
d="M235 253q0 -16 -17 -16h-78q-17 0 -17 16v24q0 58 26 96q19 29 67 63q39 26 56 48q21 26 21 62q0 79 -95 79q-58 0 -121 -29q-6 -3 -11 -3q-9 0 -13 8l-27 58q-4 10 -4 13q0 9 13 16q86 42 175 42q92 0 149 -43q60 -47 60 -132q0 -67 -36 -114q-28 -37 -83 -74
q-35 -24 -50 -43t-15 -47v-24zM125 0q-20 0 -20 19v108q0 19 20 19h109q21 0 21 -19v-108q0 -19 -21 -19h-109z" />
    <glyph glyph-name="at" unicode="@" horiz-adv-x="827" 
d="M253.5 13q-66.5 23 -114.5 66q-103 92 -103 247q0 91 32 166t91 129q56 53 130 81t156 28q77 0 141.5 -21t110.5 -61q46 -41 71 -98t25 -127q0 -47 -13.5 -93.5t-39.5 -83.5q-28 -40 -68 -62.5t-89 -22.5q-83 0 -110 56q-16 -24 -47 -40t-66 -16q-65 0 -101 44t-36 115
q0 49 15 91t41 74q26 30 59.5 47t71.5 17q30 0 53 -10.5t45 -31.5l9 19q5 8 8.5 10t12.5 2h50q17 0 14 -17l-40 -212q-4 -17 -4 -35q0 -17 11.5 -27t30.5 -10q21 0 40.5 15t32.5 40t20.5 59t7.5 69q0 106 -68.5 165.5t-188.5 59.5q-73 0 -131.5 -24t-99.5 -67
q-40 -42 -61 -99t-21 -122q0 -125 75 -194.5t208 -69.5q89 0 182 27q2 1 6 1q6 0 7 -7l11 -45q1 -3 1 -7q0 -7 -8 -10q-45 -18 -102 -28t-112 -10q-79 0 -145.5 23zM488 439q-11 15 -30.5 24.5t-37.5 9.5q-43 0 -70 -52q-11 -21 -17 -47t-6 -49q0 -41 15.5 -63t42.5 -22
q34 0 59 35q19 30 29 84z" />
    <glyph glyph-name="A" unicode="A" horiz-adv-x="655" 
d="M452 175h-259l-50 -156q-7 -19 -27 -19h-84q-16 0 -16 12q0 2 2 10l237 680q4 10 10 14t18 4h82q13 0 19 -4t9 -14l244 -682q1 -3 1 -7q0 -6 -4 -9.5t-11 -3.5h-92q-20 0 -27 19zM226 274h193l-11 33q-35 104 -85 267l-17 -56l-21 -66l-24 -71l-24 -73z" />
    <glyph glyph-name="B" unicode="B" horiz-adv-x="594" 
d="M96 0q-20 0 -20 19v682q0 19 20 19h151q70 0 121.5 -12t85.5 -38q61 -45 61 -135q0 -101 -93 -152q63 -24 96.5 -65.5t33.5 -105.5q0 -111 -80 -164q-73 -48 -200 -48h-176zM255 419q65 0 98 26t33 77q0 46 -27 70q-17 16 -42.5 21t-63.5 5h-50v-199h52zM269 101
q71 0 106 20q47 27 47 89q0 59 -37.5 85.5t-109.5 26.5h-72v-221h66z" />
    <glyph glyph-name="C" unicode="C" horiz-adv-x="581" 
d="M116 89q-76 94 -76 263q0 82 19.5 150.5t58.5 119.5q39 52 98 80t135 28q114 0 188 -55q11 -8 11 -18q0 -5 -3 -11l-30 -52q-7 -13 -19 -13q-4 0 -10 3q-33 20 -62.5 29.5t-64.5 9.5q-88 0 -139 -68t-51 -198q0 -118 44 -185q48 -74 145 -74q67 0 131 32q7 4 13 4
q10 0 14 -10l26 -55q3 -6 3 -11q0 -10 -11 -18q-38 -23 -91 -36.5t-105 -13.5q-145 0 -224 99z" />
    <glyph glyph-name="D" unicode="D" horiz-adv-x="665" 
d="M96 0q-20 0 -20 19v682q0 19 20 19h164q99 0 164.5 -21t110.5 -68q43 -44 66.5 -111.5t23.5 -156.5q0 -190 -104 -288q-43 -41 -105 -58t-151 -17h-169zM203 618v-516h61q111 0 164 50q67 64 67 209q0 63 -13 111t-37 78q-28 34 -71.5 51t-106.5 17h-64z" />
    <glyph glyph-name="E" unicode="E" horiz-adv-x="558" 
d="M96 0q-20 0 -20 19v682q0 19 20 19h386q20 0 20 -19v-65q0 -19 -20 -19h-279v-202h236q20 0 20 -18v-65q0 -19 -20 -19h-236v-210h283q20 0 20 -19v-65q0 -19 -20 -19h-390z" />
    <glyph glyph-name="F" unicode="F" horiz-adv-x="519" 
d="M203 19q0 -19 -20 -19h-87q-20 0 -20 19v682q0 19 20 19h377q20 0 20 -19v-65q0 -19 -20 -19h-270v-202h227q20 0 20 -18v-65q0 -19 -20 -19h-227v-294z" />
    <glyph glyph-name="G" unicode="G" horiz-adv-x="660" 
d="M468 295h-135q-20 0 -20 19v65q0 18 20 18h241q20 0 20 -18v-311q0 -15 -4.5 -21.5t-20.5 -15.5q-41 -18 -96 -29q-54 -12 -110 -12q-78 0 -134 20t-95 59q-94 94 -94 288q0 85 21.5 153.5t63.5 117.5q42 50 102 76t136 26q126 0 206 -61q11 -9 11 -18q0 -7 -4 -12
l-28 -52q-8 -14 -17 -14q-4 0 -12 4q-35 23 -71 34.5t-77 11.5q-100 0 -150 -67.5t-50 -195.5q0 -124 47 -192q50 -72 151 -72q57 0 99 16v183z" />
    <glyph glyph-name="H" unicode="H" horiz-adv-x="681" 
d="M96 0q-20 0 -20 19v682q0 19 20 19h87q20 0 20 -19v-286h275v286q0 19 20 19h87q20 0 20 -19v-682q0 -19 -20 -19h-87q-20 0 -20 19v294h-275v-294q0 -19 -20 -19h-87z" />
    <glyph glyph-name="I" unicode="I" horiz-adv-x="285" 
d="M99 0q-20 0 -20 19v682q0 19 20 19h87q20 0 20 -19v-682q0 -19 -20 -19h-87z" />
    <glyph glyph-name="J" unicode="J" horiz-adv-x="476" 
d="M106 1q-49 12 -70 24q-11 4 -11 16q0 8 2 13l18 58q4 11 15 11q8 0 12 -2q56 -24 104 -24q57 0 82 38q19 29 19 95v387h-161q-20 0 -20 19v65q0 19 20 19h268q20 0 20 -19v-469q0 -121 -51 -181.5t-163 -60.5q-40 0 -84 11z" />
    <glyph glyph-name="K" unicode="K" horiz-adv-x="609" 
d="M96 0q-20 0 -20 19v682q0 19 20 19h87q20 0 20 -19v-284h28q17 0 25 4.5t17 17.5l184 263q8 11 14 14.5t18 3.5h82q7 0 11.5 -3.5t4.5 -8.5t-5 -12l-227 -322l239 -352q4 -5 4 -11q0 -5 -4 -8t-10 -3h-96q-14 0 -21 4t-15 16l-178 267q-10 15 -18 19.5t-26 4.5h-27v-292
q0 -19 -20 -19h-87z" />
    <glyph glyph-name="L" unicode="L" horiz-adv-x="513" 
d="M203 103h260q20 0 20 -19v-65q0 -19 -20 -19h-367q-20 0 -20 19v682q0 19 20 19h87q20 0 20 -19v-598z" />
    <glyph glyph-name="M" unicode="M" horiz-adv-x="820" 
d="M383 119q-17 0 -24 4t-12 16l-62 151q-20 47 -46 116l-21 58l-18 50v-60q0 -43 -2 -151l-2 -79l-7 -202q-1 -22 -21 -22h-74q-14 0 -19 5t-4 18l30 675q1 22 24 22h81q14 0 20.5 -4t11.5 -15l92 -227q34 -80 75 -195q6 -14 8 -21q8 24 36 98q15 39 16 42l28 72l93 231
q5 11 12 15t19 4h79q23 0 24 -22l29 -675q2 -23 -23 -23h-76q-23 0 -23 22l-7 261q-4 135 -4 235q-39 -120 -83 -227l-62 -152q-5 -12 -12 -16t-24 -4h-52z" />
    <glyph glyph-name="N" unicode="N" horiz-adv-x="700" 
d="M304 325q-42 65 -71 115q-32 56 -44 79l4 -107q1 -21 1 -62v-57v-274q0 -19 -20 -19h-78q-20 0 -20 19v682q0 19 20 19h69q14 0 21.5 -4t14.5 -14l194 -307l39 -62q26 -40 55 -91l21 -41q-3 84 -3 107q-1 20 -1 61v57v275q0 19 20 19h78q20 0 20 -19v-682q0 -19 -20 -19
h-69q-14 0 -21.5 4t-13.5 14z" />
    <glyph glyph-name="O" unicode="O" horiz-adv-x="699" 
d="M577 94q-41 -50 -101.5 -77t-136.5 -27q-140 0 -215 87q-84 94 -84 273q0 87 21 157t62 120t101 76.5t136 26.5q139 0 216 -86q83 -96 83 -274q0 -176 -82 -276zM484 559.5q-44 63.5 -127 63.5q-90 0 -138 -69t-48 -200q0 -130 44 -193.5t127 -63.5q90 0 138 69t48 200
q0 130 -44 193.5z" />
    <glyph glyph-name="P" unicode="P" horiz-adv-x="560" 
d="M96 0q-20 0 -20 19v682q0 19 20 19h143q87 0 146 -16.5t94 -52.5q53 -53 53 -154q0 -106 -63 -169q-32 -32 -81.5 -50t-111.5 -18q-50 0 -73 3v-244q0 -19 -20 -19h-87zM203 618v-254q20 -3 66 -3q68 0 101.5 35t33.5 100q0 63 -36 93q-19 16 -47 22.5t-67 6.5h-51z" />
    <glyph glyph-name="Q" unicode="Q" horiz-adv-x="699" 
d="M626 179q-33 -82 -96 -130q33 -43 91 -95q9 -9 9 -17q0 -10 -9 -17l-51 -45q-10 -10 -20 -10q-9 0 -16.5 6.5t-14.5 14.5t-11 12q-41 43 -60 65q-17 18 -30 36q-36 -9 -79 -9q-140 0 -215 87q-84 94 -84 273q0 87 21 157t62 120t101 76.5t136 26.5q139 0 216 -86
q83 -96 83 -274q0 -109 -33 -191zM484 559.5q-44 63.5 -127 63.5q-90 0 -138 -69t-48 -200q0 -130 44 -193.5t127 -63.5q90 0 138 69t48 200q0 130 -44 193.5z" />
    <glyph glyph-name="R" unicode="R" horiz-adv-x="600" 
d="M295 259q-9 16 -17 20t-27 4h-48v-264q0 -19 -20 -19h-87q-20 0 -20 19v682q0 19 20 19h164q161 0 226 -69q48 -49 48 -141q0 -144 -132 -205l167 -279q6 -7 6 -14q0 -5 -4.5 -8.5t-12.5 -3.5h-91q-14 0 -19.5 2.5t-13.5 14.5zM203 618v-235h64q69 0 104 32t35 93
q0 51 -27 78q-19 19 -47.5 25.5t-69.5 6.5h-59z" />
    <glyph glyph-name="S" unicode="S" horiz-adv-x="539" 
d="M173 110q38 -14 73 -14q56 0 92 25t36 71q0 44 -40 77q-16 13 -39.5 26t-47.5 25q-42 20 -70.5 37t-51.5 38q-59 52 -59 131q0 47 17.5 85.5t49.5 65.5q30 26 70 39.5t86 13.5q104 0 178 -51q10 -6 10 -17q0 -7 -4 -14l-28 -50q-6 -12 -16 -12q-5 0 -13 5
q-34 18 -61.5 26.5t-58.5 8.5q-49 0 -76.5 -24.5t-27.5 -62.5q0 -37 38 -67q25 -19 86 -50q48 -23 80.5 -44.5t55.5 -45.5q47 -52 47 -129q0 -94 -62 -153q-65 -60 -181 -60q-62 0 -119.5 18.5t-91.5 46.5q-9 8 -9 17q0 7 4 14l30 56q6 12 15 12q6 0 14 -6q36 -24 74 -38z
" />
    <glyph glyph-name="T" unicode="T" horiz-adv-x="533" 
d="M330 617v-598q0 -19 -20 -19h-87q-20 0 -20 19v598h-167q-20 0 -20 19v65q0 19 20 19h461q20 0 20 -19v-65q0 -19 -20 -19h-167z" />
    <glyph glyph-name="U" unicode="U" horiz-adv-x="690" 
d="M618 286q0 -149 -67.5 -222.5t-209.5 -73.5q-139 0 -204 67.5t-65 208.5v435q0 19 20 19h87q20 0 20 -19v-432q0 -90 34.5 -131.5t111.5 -41.5q148 0 148 173v432q0 19 20 19h85q20 0 20 -19v-415z" />
    <glyph glyph-name="V" unicode="V" horiz-adv-x="633" 
d="M232 429l78 -267q12 -42 11 -39l12 42q60 205 77 262l81 274q4 19 27 19h83q16 0 16 -12q0 -2 -2 -10l-221 -680q-4 -10 -10 -14t-18 -4h-92q-13 0 -19 4t-9 14l-228 682q-1 3 -1 7q0 6 4 9.5t11 3.5h91q23 0 27 -19z" />
    <glyph glyph-name="W" unicode="W" horiz-adv-x="968" 
d="M638 376q14 -61 26 -125l12 -64l6 -37q2 -7 4 -21q16 109 49 246l77 326q3 11 8.5 15t18.5 4h80q16 0 16 -13q0 -6 -1 -9l-177 -676q-4 -13 -10 -17.5t-20 -4.5h-95q-13 0 -19 4.5t-9 16.5l-71 294q-30 121 -47 233q-19 -126 -45 -229l-70 -298q-3 -12 -9 -16.5t-19 -4.5
h-93q-14 0 -20.5 4.5t-9.5 16.5l-186 677q-1 3 -1 9q0 13 16 13h90q12 0 18 -4t9 -15l81 -326q36 -148 51 -237q24 144 46 237l75 325q3 13 8.5 16.5t19.5 3.5h86q14 0 19.5 -3.5t8.5 -16.5z" />
    <glyph glyph-name="X" unicode="X" horiz-adv-x="601" 
d="M142 223q51 85 95 151l-41 69q-33 53 -57 94l-96 162q-3 5 -3 9q0 5 4 8.5t11 3.5h91q14 0 20.5 -3t12.5 -14l69 -119q41 -70 64 -117l29 55q18 37 33 62l66 119q5 10 12 13.5t21 3.5h87q13 0 13 -10q0 -4 -3 -10l-128 -214l-36 -59l-36 -57q32 -50 84 -137l125 -211
q3 -6 3 -10q0 -12 -14 -12h-93q-14 0 -21 4t-13 14l-86 151l-61 108l-57 -105l-85 -154q-5 -10 -12.5 -14t-21.5 -4h-85q-15 0 -15 10q0 7 4 12z" />
    <glyph glyph-name="Y" unicode="Y" horiz-adv-x="571" 
d="M241 0q-20 0 -20 19v261l-208 420q-3 5 -3 9q0 5 4.5 8t11.5 3h87q15 0 22.5 -4t12.5 -15l61 -132l21 -44l45 -95q12 -25 15 -35l15 34q2 5 19 44l21 48q3 7 22 48l61 133q5 11 11.5 14.5t21.5 3.5h84q7 0 11.5 -3t4.5 -8q0 -4 -3 -9l-210 -420v-261q0 -19 -20 -19h-87z
" />
    <glyph glyph-name="Z" unicode="Z" horiz-adv-x="565" 
d="M60 0q-20 0 -20 19v46q0 17 3 28.5t14 27.5l309 496h-289q-20 0 -20 19v65q0 19 20 19h418q20 0 20 -19v-46q0 -15 -3.5 -26.5t-12.5 -25.5l-312 -500h318q20 0 20 -19v-65q0 -19 -20 -19h-445z" />
    <glyph glyph-name="bracketleft" unicode="[" horiz-adv-x="334" 
d="M78 740q0 13 13 13h212q13 0 13 -13v-62q0 -13 -13 -13h-111v-709h111q13 0 13 -13v-62q0 -13 -13 -13h-212q-13 0 -13 13v859z" />
    <glyph glyph-name="backslash" unicode="\" horiz-adv-x="353" 
d="M11 711q-1 2 -1 6q0 10 13 10h86q16 0 20 -15l213 -702q1 -2 1 -6q0 -10 -13 -10h-86q-15 0 -20 15z" />
    <glyph glyph-name="bracketright" unicode="]" horiz-adv-x="334" 
d="M256 -119q0 -13 -13 -13h-212q-13 0 -13 13v62q0 13 13 13h111v709h-111q-13 0 -13 13v62q0 13 13 13h212q13 0 13 -13v-859z" />
    <glyph glyph-name="asciicircum" unicode="^" horiz-adv-x="582" 
d="M525 339q2 -6 2 -8q0 -11 -13 -11h-77q-10 0 -14 2t-8 10l-123 271l-124 -271q-4 -8 -8 -10t-14 -2h-77q-13 0 -13 11q0 5 2 8l177 370q4 9 8 12t14 3h71q10 0 14 -3t8 -12z" />
    <glyph glyph-name="underscore" unicode="_" horiz-adv-x="502" 
d="M512 -194q0 -17 -16 -17h-490q-16 0 -16 17v57q0 17 16 17h490q16 0 16 -17v-57z" />
    <glyph glyph-name="grave" unicode="`" 
d="M209 591q-8 0 -12 2t-10 8l-117 150q-3 5 -3 8q0 7 11 7h89q8 0 12 -2.5t8 -8.5l94 -151q3 -4 3 -8q0 -5 -9 -5h-66z" />
    <glyph glyph-name="a" unicode="a" horiz-adv-x="578" 
d="M400 66q-24 -36 -62.5 -56t-83.5 -20q-51 0 -91.5 19t-67.5 55q-55 72 -55 190q0 65 17.5 118.5t49.5 91.5q30 36 71 55t87 19q41 0 77.5 -17.5t55.5 -44.5l3 34q1 11 5.5 14.5t16.5 3.5h66q19 0 19 -16v-30q-1 -14 -1 -47v-55q-1 -20 -1 -58v-95q0 -73 8 -145
q1 -25 5 -45l2 -21q0 -16 -17 -16h-67q-16 0 -22 15q-10 22 -15 51zM386 379q-19 26 -45 40.5t-56 14.5q-57 0 -89 -45.5t-32 -129.5q0 -74 26 -117q29 -49 88 -49q21 0 40 8.5t32 23.5q19 20 27.5 52t8.5 69v133z" />
    <glyph glyph-name="b" unicode="b" horiz-adv-x="569" 
d="M186 487q24 24 60.5 37.5t77.5 13.5q48 0 86 -18.5t65 -53.5q54 -71 54 -192q0 -141 -67 -212.5t-201 -71.5q-45 0 -102 11q-47 9 -76 24q-11 5 -14 11t-3 19v695q0 16 17 16h86q17 0 17 -16v-263zM405 272q0 161 -114 161q-25 0 -48 -8t-37 -22q-12 -12 -16 -31.5
t-4 -57.5v-210q31 -12 74 -12q145 0 145 180z" />
    <glyph glyph-name="c" unicode="c" horiz-adv-x="496" 
d="M102 64q-62 71 -62 195q0 63 18 115.5t52 88.5q70 75 187 75q47 0 89.5 -13.5t75.5 -37.5q9 -7 9 -14q0 -5 -5 -17l-25 -49q-5 -12 -15 -12q-6 0 -14 5q-58 33 -111 33q-62 0 -97 -41q-40 -45 -40 -127q0 -79 33 -122q37 -48 104 -48q52 0 111 27q10 4 12 4q10 0 15 -13
l20 -47q3 -9 3 -15q0 -11 -8 -15q-33 -21 -77.5 -33.5t-91.5 -12.5q-120 0 -183 74z" />
    <glyph glyph-name="d" unicode="d" horiz-adv-x="586" 
d="M430 10q-24 13 -35 41q-23 -27 -62.5 -44t-78.5 -17q-51 0 -91.5 19t-67.5 55q-55 72 -55 190q0 65 17.5 118.5t49.5 91.5q31 36 72 55t87 19q35 0 67 -12t53 -32v256q0 16 17 16h86q17 0 17 -16v-619q0 -19 6.5 -27.5t24.5 -10.5q15 -2 15 -17v-49q0 -18 -17 -23
q-18 -7 -51 -7q-30 0 -54 13zM386 387q-20 23 -46 35t-54 12q-58 0 -90 -45.5t-32 -129.5q0 -74 27 -117q31 -49 89 -49q51 0 79 28q15 15 21 39.5t6 67.5v159z" />
    <glyph glyph-name="e" unicode="e" horiz-adv-x="554" 
d="M102 66q-30 35 -46 84t-16 106q0 63 18 115.5t51 89.5t78 57t99 20q109 0 169 -76q28 -36 42.5 -85.5t14.5 -107.5q0 -27 -5 -39q-4 -10 -16 -10h-326q8 -64 43.5 -95t101.5 -31q31 0 66 8.5t66 22.5q4 2 10 2q12 0 16 -12l20 -49q3 -7 3 -13q0 -8 -12 -16
q-38 -22 -86 -34.5t-100 -12.5q-126 0 -191 76zM205.5 401q-30.5 -34 -39.5 -91h225q-2 53 -28 87q-30 38 -77 38q-50 0 -80.5 -34z" />
    <glyph glyph-name="f" unicode="f" horiz-adv-x="377" 
d="M14 511q0 17 16 17h63v36q0 103 54.5 157.5t152.5 54.5q64 0 100 -17q18 -8 14 -26l-13 -52q-3 -13 -17 -13q-5 0 -8 1q-40 8 -64 8q-99 0 -99 -115v-34h134q16 0 16 -17v-61q0 -17 -16 -17h-134v-417q0 -16 -17 -16h-86q-17 0 -17 16v417h-63q-16 0 -16 17v61z" />
    <glyph glyph-name="g" unicode="g" horiz-adv-x="575" 
d="M387 -8v57q-24 -27 -58.5 -41t-73.5 -14q-51 0 -91 19t-68 54q-56 70 -56 189q0 65 17.5 118t49.5 90q31 36 72 55t87 19q38 0 73 -16t56 -41q0 19 4 30q2 10 7 13.5t17 3.5h54q17 0 21 -10.5t6 -41.5q2 -48 2 -81l1 -41v-63v-290q0 -130 -58.5 -191.5t-184.5 -61.5
q-73 0 -141 19q-17 5 -13 24l12 58q1 9 4.5 12.5t9.5 3.5t9 -1q67 -13 109 -13q79 0 106 34q27 32 27 107zM324 104q21 7 35 21q15 15 21.5 40t6.5 67v147q-19 26 -45 40.5t-56 14.5q-58 0 -90 -44.5t-32 -128.5q0 -72 27 -116q30 -48 88 -48q24 0 45 7z" />
    <glyph glyph-name="h" unicode="h" horiz-adv-x="584" 
d="M85 0q-17 0 -17 16v734q0 16 17 16h86q17 0 17 -16v-269q27 27 64.5 42t79.5 15q91 0 139 -54q26 -27 37 -65.5t11 -98.5v-304q0 -16 -18 -16h-85q-17 0 -17 16v265q0 55 -4 80q-5 25 -19 42q-23 26 -77 26q-22 0 -44.5 -6t-36.5 -17q-14 -9 -20 -22t-8 -37
q-2 -26 -2 -48v-64v-219q0 -16 -17 -16h-86z" />
    <glyph glyph-name="i" unicode="i" horiz-adv-x="264" 
d="M81 627q-18 0 -18 17v101q0 17 18 17h101q19 0 19 -17v-101q0 -17 -19 -17h-101zM89 0q-17 0 -17 16v496q0 16 17 16h86q17 0 17 -16v-496q0 -16 -17 -16h-86z" />
    <glyph glyph-name="j" unicode="j" horiz-adv-x="274" 
d="M91 627q-18 0 -18 17v101q0 17 18 17h101q19 0 19 -17v-101q0 -17 -19 -17h-101zM-32 -229q-24 4 -40 11t-12 25l10 50q2 9 5.5 12.5t11.5 3.5q5 0 8 -1q27 -5 51 -5q45 0 62.5 26t17.5 91v528q0 16 17 16h86q17 0 17 -16v-506q0 -131 -49 -188q-45 -51 -136 -51
q-25 0 -49 4z" />
    <glyph glyph-name="k" unicode="k" horiz-adv-x="517" 
d="M85 0q-17 0 -17 16v734q0 16 17 16h86q17 0 17 -16v-434h22q13 0 19.5 3.5t14.5 14.5l121 178q6 10 11 13t17 3h76q7 0 10.5 -3t3.5 -8t-3 -10l-153 -223l172 -264q3 -4 3 -9q0 -11 -13 -11h-87q-13 0 -19 4t-13 14l-118 184q-8 11 -13 14t-18 3h-33v-203q0 -16 -17 -16
h-86z" />
    <glyph glyph-name="l" unicode="l" horiz-adv-x="278" 
d="M101 29q-31 34 -31 120v349q0 137 -3 194l-3 41l-1 18q0 15 18 15h80q16 0 19.5 -10t5.5 -43q2 -41 4 -152v-101v-327q0 -22 7 -32t24 -10h10q9 0 11 -3.5t2 -13.5v-47q0 -14 -7 -19t-23 -9q-12 -3 -27 -3q-54 0 -86 33z" />
    <glyph glyph-name="m" unicode="m" horiz-adv-x="897" 
d="M248 520.5q38 17.5 81 17.5q50 0 91.5 -21.5t61.5 -59.5q30 39 74 60t93 21q86 0 134 -54q26 -28 37.5 -66.5t11.5 -97.5v-304q0 -16 -18 -16h-85q-17 0 -17 16v265q0 55 -4 80q-5 25 -19 42q-21 26 -73 26q-19 0 -40 -5.5t-35 -16.5q-15 -11 -21 -23.5t-8 -35.5
q-2 -27 -1 -48v-64v-220q0 -16 -17 -16h-86q-17 0 -17 16v265q0 55 -4 80q-5 25 -19 42q-21 26 -73 26q-19 0 -40 -5.5t-35 -16.5q-14 -9 -20 -22t-8 -37q-2 -26 -2 -48v-64v-220q0 -16 -17 -16h-86q-17 0 -17 16v313q0 41 -1 62q-1 20 -1 55l-2 43q-1 11 -1 23q0 16 17 16
h77q9 0 13 -3t6 -12q4 -20 5 -41q27 31 65 48.5z" />
    <glyph glyph-name="n" unicode="n" horiz-adv-x="585" 
d="M181 496q0 -15 1 -22q26 29 66 46.5t86 17.5q90 0 139 -54q26 -27 37 -65.5t11 -98.5v-304q0 -16 -17 -16h-86q-17 0 -17 16v265q0 55 -4 80q-5 25 -19 42q-23 26 -77 26q-22 0 -44.5 -6t-36.5 -17q-14 -10 -20 -22.5t-8 -36.5q-2 -26 -2 -48v-64v-219q0 -16 -17 -16h-86
q-17 0 -17 16v313q0 41 -1 62q-1 20 -1 55l-2 43q-1 11 -1 23q0 16 17 16h76q17 0 20 -15z" />
    <glyph glyph-name="o" unicode="o" horiz-adv-x="570" 
d="M101 58.5q-61 68.5 -61 194.5q0 138 66.5 211.5t187.5 73.5q114 0 175 -68.5t61 -194.5q0 -138 -66.5 -211.5t-187.5 -73.5q-114 0 -175 68.5zM373 138q33 44 33 130q0 78 -26 119q-30 47 -89 47q-61 0 -94 -44t-33 -130q0 -77 26 -118q30 -48 89 -48q61 0 94 44z" />
    <glyph glyph-name="p" unicode="p" horiz-adv-x="574" 
d="M87 -242q-17 0 -17 17v554q0 41 -1 62q-1 20 -1 55l-2 43q-1 11 -1 23q0 16 17 16h77q9 0 13 -3t6 -12q3 -22 4 -37q26 29 63.5 45.5t81.5 16.5q47 0 85.5 -18t65.5 -53t41.5 -84.5t14.5 -109.5q0 -127 -60 -204q-63 -79 -167 -79q-66 0 -117 31v-246q0 -17 -17 -17h-86z
M377 141q33 47 33 131q0 79 -29 120.5t-88 41.5q-25 0 -50 -9.5t-37 -24.5q-10 -13 -13 -30.5t-3 -57.5v-184q15 -15 41 -24.5t53 -9.5q60 0 93 47z" />
    <glyph glyph-name="q" unicode="q" horiz-adv-x="570" 
d="M322.5 3.5q-35.5 -13.5 -75.5 -13.5q-99 0 -153 73t-54 191q0 63 19 116t55 91q35 38 85 57.5t110 19.5q47 0 95 -11t79 -28q11 -6 15 -14t4 -23v-401q0 -97 5 -159q5 -89 10 -123v-4q0 -17 -20 -17h-74q-12 0 -18 4.5t-8 14.5q-5 21 -10 99q-5 57 -5 167
q-24 -26 -59.5 -39.5zM354 122q15 15 21.5 40t6.5 67v196q-35 12 -73 12q-100 0 -133 -96q-12 -34 -12 -84q0 -79 26.5 -121t86.5 -42q49 0 77 28z" />
    <glyph glyph-name="r" unicode="r" horiz-adv-x="380" 
d="M87 0q-17 0 -17 16v313q0 41 -1 62q-1 20 -1 55l-2 43q-1 11 -1 23q0 16 17 16h77q9 0 13 -3t6 -12q6 -36 8 -98q59 122 147 122q16 0 22.5 -4.5t6.5 -16.5v-68q0 -17 -17 -19q-38 -4 -71 -24.5t-52 -51.5q-20 -33 -25 -70q-7 -41 -7 -120v-147q0 -16 -17 -16h-86z" />
    <glyph glyph-name="s" unicode="s" horiz-adv-x="470" 
d="M68 120q8 13 16 13q4 0 12 -4q64 -40 131 -40q40 0 65 17.5t25 44.5q0 28 -25 41q-28 15 -82 29q-36 10 -63 21t-47 27q-50 40 -50 109q0 75 57 119q53 41 142 41q93 0 158 -47q9 -7 9 -17q0 -6 -4 -13l-28 -44q-7 -12 -15 -12q-6 0 -14 5q-56 30 -106 30q-37 0 -61 -13
t-24 -42q0 -14 8 -24t24 -18q23 -12 69 -25q37 -11 63.5 -21.5t47.5 -25.5q54 -39 54 -109q0 -80 -58 -127q-27 -22 -63.5 -33.5t-77.5 -11.5q-59 0 -107 15t-77 39q-8 5 -8 16q0 7 3 14z" />
    <glyph glyph-name="t" unicode="t" horiz-adv-x="409" 
d="M214 528h123q16 0 16 -17v-61q0 -17 -16 -17h-123v-257q0 -51 16 -68q14 -17 49 -17q27 0 64 11q3 1 8 1q13 0 16 -13l14 -49q1 -4 1 -10q0 -11 -14 -18q-19 -10 -50.5 -16.5t-62.5 -6.5q-81 0 -121 41t-40 137v265h-68q-16 0 -16 17v61q0 17 16 17h68v139q0 16 17 16h86
q17 0 17 -16v-139z" />
    <glyph glyph-name="u" unicode="u" horiz-adv-x="583" 
d="M335 7.5q-40 -17.5 -87 -17.5q-89 0 -137 54q-25 28 -36 66.5t-11 97.5v304q0 16 17 16h86q17 0 17 -16v-265q0 -55 4 -80q4 -24 17 -42q23 -26 76 -26q22 0 44.5 6t36.5 17q14 9 20 22t8 37q2 26 2 49v63v219q0 16 18 16h85q17 0 17 -16v-313q0 -36 2 -90l1 -27l2 -42
l1 -24q0 -16 -18 -16h-77q-9 0 -13 3.5t-6 12.5l-4 38q-25 -29 -65 -46.5z" />
    <glyph glyph-name="v" unicode="v" horiz-adv-x="513" 
d="M403 528h79q18 0 14 -19q-29 -128 -79 -264q-48 -131 -96 -225q-5 -12 -12.5 -16t-22.5 -4h-67q-13 0 -20 3.5t-12 14.5l-177 491q-2 6 -2 8q0 11 15 11h87q12 0 17.5 -3t8.5 -12l75 -222q27 -78 52 -165q30 75 65 191q35 113 52 195q4 16 23 16z" />
    <glyph glyph-name="w" unicode="w" horiz-adv-x="787" 
d="M511 323q18 -66 49 -203q58 180 93 393q2 9 6 12t15 3h77q17 0 13 -19q-23 -125 -58.5 -252t-78.5 -237q-5 -12 -11 -16t-18 -4h-83q-24 0 -29 20l-50 183q-28 104 -41 187q-11 -74 -43 -188l-51 -182q-5 -20 -29 -20h-86q-13 0 -19 4.5t-10 15.5l-141 489q-1 3 -1 8
q0 11 14 11h83q13 0 17.5 -2.5t7.5 -12.5l55 -208q7 -23 24 -97q11 -46 19 -89l8 39l11 47q14 64 23 97l56 207q3 11 8 15t18 4h77q13 0 18 -4t8 -15z" />
    <glyph glyph-name="x" unicode="x" horiz-adv-x="511" 
d="M33 0q-15 0 -15 11q0 2 4 10l96 144l73 107l-73 110l-83 126q-4 8 -4 10q0 10 15 10h92q12 0 18.5 -3.5t11.5 -11.5l40 -64q26 -40 52 -85l48 84l38 65q5 9 11.5 12t18.5 3h84q15 0 15 -10q0 -2 -4 -10l-91 -139q-35 -53 -63 -93l65 -96l107 -160q4 -8 4 -10
q0 -10 -15 -10h-89q-20 0 -31 15l-53 83l-55 89l-53 -90l-50 -82q-10 -15 -30 -15h-84z" />
    <glyph glyph-name="y" unicode="y" horiz-adv-x="580" 
d="M512 1q0 -130 -58.5 -191.5t-184.5 -61.5q-73 0 -141 19q-17 5 -13 24l12 58q1 9 4.5 12.5t9.5 3.5t9 -1q67 -13 109 -13q79 0 106 34q27 31 27 107v54q-56 -56 -145 -56q-43 0 -78.5 14.5t-57.5 40.5q-25 27 -36 67t-11 96v304q0 16 17 16h86q17 0 17 -16v-264
q0 -58 4 -81q7 -48 49 -61q18 -7 42 -7q23 0 45.5 5.5t36.5 16.5q13 9 19.5 21.5t8.5 32.5q3 27 3 112v225q0 16 18 16h85q17 0 17 -16v-511z" />
    <glyph glyph-name="z" unicode="z" horiz-adv-x="447" 
d="M267 433h-216q-16 0 -16 18v60q0 17 16 17h349q17 0 17 -17v-28q0 -24 -15 -47l-227 -341h231q17 0 17 -18v-60q0 -17 -17 -17h-366q-16 0 -16 17v28q0 25 15 47z" />
    <glyph glyph-name="braceleft" unicode="{" horiz-adv-x="323" 
d="M24 347q0 12 13 13q61 10 61 84v135q0 86 40 130t125 44h31q13 0 13 -13v-62q0 -13 -13 -13h-20q-34 0 -48 -19.5t-14 -57.5v-131q0 -54 -15 -88q-19 -44 -56 -56q38 -15 56 -56q15 -34 15 -88v-131q0 -38 14 -57.5t48 -19.5h20q13 0 13 -13v-62q0 -13 -13 -13h-31
q-85 0 -125 44t-40 130v135q0 74 -61 84q-13 1 -13 13v68z" />
    <glyph glyph-name="bar" unicode="|" horiz-adv-x="272" 
d="M97 -242q-17 0 -17 16v976q0 16 17 16h78q17 0 17 -16v-976q0 -16 -17 -16h-78z" />
    <glyph glyph-name="braceright" unicode="}" horiz-adv-x="323" 
d="M299 279q0 -12 -13 -13q-61 -10 -61 -84v-135q0 -86 -40 -130t-125 -44h-31q-13 0 -13 13v62q0 13 13 13h20q34 0 48 19.5t14 57.5v131q0 54 15 88q18 41 56 56q-37 12 -56 56q-15 34 -15 88v131q0 38 -14 57.5t-48 19.5h-20q-13 0 -13 13v62q0 13 13 13h31q85 0 125 -44
t40 -130v-135q0 -74 61 -84q13 -1 13 -13v-68z" />
    <glyph glyph-name="asciitilde" unicode="~" horiz-adv-x="583" 
d="M463 441q2 9 6.5 11.5t13.5 0.5l46 -11q11 -3 13 -7.5t0 -11.5q-12 -57 -51.5 -91.5t-95.5 -34.5q-35 0 -62 10t-56 28q-6 3 -25 15t-35.5 17.5t-31.5 5.5q-48 0 -65 -56q-2 -9 -6.5 -11.5t-13.5 -0.5l-46 11q-11 3 -13 7.5t0 11.5q12 57 51.5 91.5t95.5 34.5
q33 0 60 -10t57 -28q36 -21 53.5 -29.5t39.5 -8.5q48 0 65 56z" />
    <glyph glyph-name="uni00A0" unicode="&#xa0;" horiz-adv-x="240" 
 />
    <glyph glyph-name="exclamdown" unicode="&#xa1;" horiz-adv-x="300" 
d="M320.308 553.009q0 -1.2998 -1.50098 -1.2998h-7.40234q-1.50098 0 -1.50098 1.2998l-1.60059 45.2168q0 1.80078 1.90137 1.80078h9.60352q1.90039 0 1.90039 -1.80078zM309.703 528q-2 0 -2 1.90039v10.4043q0 1.90039 2 1.90039h10.5039q2.10156 0 2.10156 -1.90039
v-10.4043q0 -1.90039 -2.10156 -1.90039h-10.5039z" />
    <glyph glyph-name="cent" unicode="&#xa2;" horiz-adv-x="583" 
d="M354 633q17 0 17 -16v-92q75 -11 123 -47q9 -7 9 -14q0 -5 -5 -17l-25 -48q-5 -12 -15 -12q-5 0 -13 5q-32 21 -74 29v-325q35 5 74 24q7 4 12 4q8 0 14 -13l20 -46q4 -8 4 -15q0 -9 -9 -14q-52 -32 -115 -42v-93q0 -16 -17 -16h-37q-17 0 -17 16v90q-105 6 -164 79
q-56 70 -56 184q0 116 60 190q58 71 160 82v91q0 16 17 16h37zM226.5 151.5q24.5 -42.5 73.5 -54.5v323q-45 -12 -71.5 -52.5t-26.5 -107.5q0 -66 24.5 -108.5z" />
    <glyph glyph-name="section" unicode="&#xa7;" horiz-adv-x="525" 
d="M461 270.5q-20 -34.5 -55 -55.5q35 -38 35 -95q0 -75 -56 -118q-54 -42 -143 -42q-93 0 -158 47q-9 8 -9 17q0 6 4 13l28 44q7 12 15 12q6 0 14 -5q56 -30 106 -30q37 0 60 13t23 42q0 27 -31 43q-17 9 -40.5 15.5t-27.5 7.5q-93 26 -133 57q-25 19 -37 43.5t-12 59.5
q0 46 19.5 80t54.5 55q-34 37 -34 96q0 75 57 119q53 41 142 41q93 0 158 -47q9 -7 9 -17q0 -6 -4 -13l-28 -44q-7 -12 -15 -12q-6 0 -14 5q-56 30 -106 30q-37 0 -60 -13t-23 -42q0 -26 31 -42q20 -11 68 -24q93 -26 134 -57q24 -19 36 -43.5t12 -59.5q0 -46 -20 -80.5z
M188.5 311q28.5 -16 92.5 -33q15 -4 42 -13q19 11 30.5 29.5t11.5 39.5q0 29 -28.5 45t-92.5 33q-23 5 -42 12q-19 -12 -30.5 -29.5t-11.5 -38.5q0 -29 28.5 -45z" />
    <glyph glyph-name="dieresis" unicode="&#xa8;" 
d="M20 612q-17 0 -17 16v86q0 16 17 16h87q18 0 18 -16v-86q0 -16 -18 -16h-87zM241 612q-17 0 -17 16v86q0 16 17 16h87q18 0 18 -16v-86q0 -16 -18 -16h-87z" />
    <glyph glyph-name="copyright" unicode="&#xa9;" horiz-adv-x="803" 
d="M260 17.5q-67 27.5 -116 76.5q-50 50 -78 118.5t-28 147.5t28 147.5t78 118.5q49 49 116 76.5t142 27.5t142 -27.5t116 -76.5q50 -50 77.5 -118.5t27.5 -147.5t-27.5 -147.5t-77.5 -118.5q-49 -49 -116 -76.5t-142 -27.5t-142 27.5zM509 85q51 22 89 62t59 94.5t21 118.5
t-21 118.5t-59 95.5q-38 39 -89 61t-108 22t-108 -22t-89 -61q-38 -41 -59.5 -95.5t-21.5 -118.5t21.5 -118.5t59.5 -94.5t88.5 -62t108.5 -22q57 0 108 22zM279 208q-46 55 -46 149q0 96 46 152q50 61 137 61q61 0 106 -30q8 -6 8 -12q0 -3 -3 -8l-18 -33q-5 -8 -9 -8
t-10 3q-19 10 -34 14t-34 4q-49 0 -76.5 -35.5t-27.5 -105.5q0 -135 104 -135q31 0 72 16q8 2 11 2q5 0 6 -7l14 -37q1 -2 1 -6q0 -7 -7 -11q-21 -13 -51 -21t-59 -8q-83 0 -130 56z" />
    <glyph glyph-name="guillemotleft" unicode="&#xab;" horiz-adv-x="531" 
d="M54 270q-6 7 -8 13.5t-2 17.5v5q0 11 2 17t8 13l124 181q10 14 18 14q3 0 15 -5l44 -23q12 -6 12 -15q0 -7 -6 -16l-104 -169l104 -169q6 -9 6 -16q0 -9 -12 -15l-44 -23q-12 -5 -15 -5q-8 0 -18 14zM270 270q-6 7 -8 13.5t-2 17.5v5q0 11 2 17t8 13l124 181q10 14 18 14
q3 0 15 -5l44 -23q12 -6 12 -15q0 -7 -6 -16l-104 -169l104 -169q6 -9 6 -16q0 -9 -12 -15l-44 -23q-12 -5 -15 -5q-8 0 -18 14z" />
    <glyph glyph-name="uni00AD" unicode="&#xad;" horiz-adv-x="387" 
d="M349 261q0 -17 -16 -17h-279q-16 0 -16 17v65q0 17 16 17h279q16 0 16 -17v-65z" />
    <glyph glyph-name="registered" unicode="&#xae;" horiz-adv-x="803" 
d="M260 17.5q-67 27.5 -116 76.5q-50 50 -78 118.5t-28 147.5t28 147.5t78 118.5q49 49 116 76.5t142 27.5t142 -27.5t116 -76.5q50 -50 77.5 -118.5t27.5 -147.5t-27.5 -147.5t-77.5 -118.5q-49 -49 -116 -76.5t-142 -27.5t-142 27.5zM511 85q51 22 89 62t59 94.5t21 118.5
t-21 118.5t-59 95.5q-38 39 -89 61t-108 22t-108 -22t-89 -61q-38 -41 -59.5 -95.5t-21.5 -118.5t21.5 -118.5t59.5 -94.5t88.5 -62t108.5 -22q57 0 108 22zM278 159q-11 0 -11 10v386q0 8 8 8h108q158 0 158 -119q0 -83 -74 -118l84 -148q4 -7 4 -12q0 -7 -11 -7h-53
q-9 0 -13 2t-8 9l-80 144h-41v-145q0 -10 -11 -10h-60zM386 378q36 0 55 16.5t19 46.5q0 32 -20.5 43.5t-57.5 11.5h-34v-118h38z" />
    <glyph glyph-name="macron" unicode="&#xaf;" 
d="M323 649q0 -17 -16 -17h-264q-16 0 -16 17v54q0 17 16 17h264q16 0 16 -17v-54z" />
    <glyph glyph-name="degree" unicode="&#xb0;" horiz-adv-x="353" 
d="M70.5 482q-38.5 36 -38.5 103q0 66 41 105.5t107 39.5q65 0 103.5 -36t38.5 -103q0 -66 -41 -105.5t-108 -39.5q-64 0 -102.5 36zM225.5 533.5q18.5 20.5 18.5 56.5q0 35 -17 54t-49 19t-51 -20.5t-19 -55.5t17 -54.5t49 -19.5q33 0 51.5 20.5z" />
    <glyph glyph-name="plusminus" unicode="&#xb1;" horiz-adv-x="582" 
d="M339 501h186q16 0 16 -17v-63q0 -17 -16 -17h-186v-189q0 -16 -17 -16h-63q-17 0 -17 16v189h-185q-16 0 -16 17v63q0 17 16 17h185v188q0 16 17 16h63q17 0 17 -16v-188zM57 0q-16 0 -16 17v63q0 17 16 17h468q16 0 16 -17v-63q0 -17 -16 -17h-468z" />
    <glyph glyph-name="uni00B2" unicode="&#xb2;" horiz-adv-x="312" 
d="M260 618.5q-20 -27.5 -56 -55.5q-18 -15 -17 -14q-32 -24 -48 -40.5t-18 -33.5h155q7 0 10.5 -3.5t3.5 -12.5v-42q0 -9 -3.5 -12.5t-10.5 -3.5h-235q-7 0 -10.5 3.5t-3.5 12.5v36q0 54 41 98q12 13 38 35q50 39 68 59q11 14 11 29q0 23 -12.5 34t-34.5 11q-32 0 -67 -19
q-7 -4 -12 -4t-10 8l-24 40q-4 5 -4 9q0 5 9 12q24 16 56 25.5t65 9.5q56 0 92.5 -32t36.5 -87q0 -35 -20 -62.5z" />
    <glyph glyph-name="uni00B3" unicode="&#xb3;" horiz-adv-x="321" 
d="M276 796q9 0 9 -8v-17q0 -13 -4 -22t-19 -29l-70 -90q51 -5 77.5 -33.5t26.5 -76.5q0 -59 -44 -92q-40 -31 -105 -31q-76 0 -122 25q-13 6 -8 20l17 43q3 9 9 9q4 0 10 -3q44 -18 85 -18q29 0 46 13.5t17 37.5q0 23 -16 32.5t-52 9.5h-33q-8 0 -8 8v33q0 9 1.5 13.5
t5.5 10.5l67 86h-130q-9 0 -9 8v64q0 7 9 7h240z" />
    <glyph glyph-name="acute" unicode="&#xb4;" 
d="M75 591q-9 0 -9 5q0 4 3 8l94 151q4 6 8 8.5t12 2.5h89q11 0 11 -7q0 -3 -3 -8l-117 -150q-6 -6 -10 -8t-12 -2h-66z" />
    <glyph glyph-name="uni00B9" unicode="&#xb9;" horiz-adv-x="309" 
d="M279 473q11 0 11 -12v-48q0 -12 -11 -12h-213q-12 0 -12 12v48q0 12 12 12h64v221l-65 -33q-4 -2 -7 -2q-6 0 -10 7l-24 46q-2 6 -2 7q0 5 7 9l104 57q13 7 21 9t20 2h37q13 0 13 -10v-313h55z" />
    <glyph glyph-name="ordmasculine" unicode="&#xba;" horiz-adv-x="387" 
d="M319 618q42 -45 42 -130q0 -92 -45.5 -141t-127.5 -49q-78 0 -120 44.5t-42 130.5q0 92 45.5 141t127.5 49q78 0 120 -45zM143.5 557.5q-19.5 -26.5 -19.5 -80.5q0 -45 16.5 -72.5t50.5 -27.5q32 0 52 26.5t20 80.5q0 45 -16.5 72.5t-50.5 27.5q-33 0 -52.5 -26.5z" />
    <glyph glyph-name="guillemotright" unicode="&#xbb;" horiz-adv-x="531" 
d="M137 89q-10 -14 -18 -14q-3 0 -15 5l-44 23q-12 6 -12 15q0 7 6 16l104 169l-104 169q-6 9 -6 16q0 9 12 15l44 23q12 5 15 5q8 0 18 -14l124 -181q6 -7 8 -13t2 -17v-5q0 -11 -2 -17.5t-8 -13.5zM353 89q-10 -14 -18 -14q-3 0 -15 5l-44 23q-12 6 -12 15q0 7 6 16
l104 169l-104 169q-6 9 -6 16q0 9 12 15l44 23q12 5 15 5q8 0 18 -14l124 -181q6 -7 8 -13t2 -17v-5q0 -11 -2 -17.5t-8 -13.5z" />
    <glyph glyph-name="onequarter" unicode="&#xbc;" horiz-adv-x="900" 
d="M349 9q-4 -9 -7.5 -12t-12.5 -3h-75q-9 0 -12.5 4t0.5 12l322 702q4 9 7.5 12t12.5 3h75q9 0 12.5 -4t-0.5 -12zM307 397q11 0 11 -12v-48q0 -12 -11 -12h-213q-12 0 -12 12v48q0 12 12 12h64v221l-65 -33q-4 -2 -7 -2q-6 0 -10 7l-24 46q-2 6 -2 7q0 5 7 9l104 57
q13 7 21 9t20 2h37q13 0 13 -10v-313h55zM828 167q12 0 12 -12v-54q0 -12 -12 -12h-34v-77q0 -12 -12 -12h-68q-11 0 -11 12v77h-162q-12 0 -12 12v19q0 23 10 46l97 221q5 8 14 8h70q7 0 9 -4t0 -9l-97 -215h71v65q0 12 11 12h68q12 0 12 -12v-65h34z" />
    <glyph glyph-name="onehalf" unicode="&#xbd;" horiz-adv-x="900" 
d="M349 9q-4 -9 -7.5 -12t-12.5 -3h-75q-9 0 -12.5 4t0.5 12l322 702q4 9 7.5 12t12.5 3h75q9 0 12.5 -4t-0.5 -12zM307 397q11 0 11 -12v-48q0 -12 -11 -12h-213q-12 0 -12 12v48q0 12 12 12h64v221l-65 -33q-4 -2 -7 -2q-6 0 -10 7l-24 46q-2 6 -2 7q0 5 7 9l104 57
q13 7 21 9t20 2h37q13 0 13 -10v-313h55zM798 217.5q-20 -27.5 -56 -55.5q-18 -15 -17 -14q-32 -24 -48 -40.5t-18 -33.5h155q7 0 10.5 -3.5t3.5 -12.5v-42q0 -9 -3.5 -12.5t-10.5 -3.5h-235q-7 0 -10.5 3.5t-3.5 12.5v36q0 54 41 98q12 13 38 35q50 39 68 59q11 14 11 29
q0 23 -12.5 34t-34.5 11q-32 0 -67 -19q-7 -4 -12 -4t-10 8l-24 40q-4 5 -4 9q0 5 9 12q24 16 56 25.5t65 9.5q56 0 92.5 -32t36.5 -87q0 -35 -20 -62.5z" />
    <glyph glyph-name="threequarters" unicode="&#xbe;" horiz-adv-x="900" 
d="M349 9q-4 -9 -7.5 -12t-12.5 -3h-75q-9 0 -12.5 4t0.5 12l322 702q4 9 7.5 12t12.5 3h75q9 0 12.5 -4t-0.5 -12zM324 720q9 0 9 -8v-17q0 -13 -4 -22t-19 -29l-70 -90q51 -5 77.5 -33.5t26.5 -76.5q0 -59 -44 -92q-40 -31 -105 -31q-76 0 -122 25q-13 6 -8 20l17 43
q3 9 9 9q4 0 10 -3q44 -18 85 -18q29 0 46 13.5t17 37.5q0 23 -16 32.5t-52 9.5h-33q-8 0 -8 8v33q0 9 1.5 13.5t5.5 10.5l67 86h-130q-9 0 -9 8v64q0 7 9 7h240zM828 167q12 0 12 -12v-54q0 -12 -12 -12h-34v-77q0 -12 -12 -12h-68q-11 0 -11 12v77h-162q-12 0 -12 12v19
q0 23 10 46l97 221q5 8 14 8h70q7 0 9 -4t0 -9l-97 -215h71v65q0 12 11 12h68q12 0 12 -12v-65h34z" />
    <glyph glyph-name="questiondown" unicode="&#xbf;" horiz-adv-x="447" 
d="M470.509 553.31q0 -1.60059 -1.70117 -1.60059h-7.80273q-1.7002 0 -1.7002 1.60059v2.40039q0 5.80273 2.60059 9.60352q1.90137 2.90137 6.70215 6.30273q3.90234 2.60059 5.60254 4.80176q2.10059 2.60059 2.10059 6.20215q0 7.90234 -9.50293 7.90234
q-5.80273 0 -12.1045 -2.90039q-0.600586 -0.300781 -1.10059 -0.300781q-0.900391 0 -1.30078 0.800781l-2.70117 5.80176q-0.399414 1.00098 -0.399414 1.30078q0 0.900391 1.2998 1.60059q8.60352 4.20117 17.5068 4.20117q9.20312 0 14.9053 -4.30078
q6.00195 -4.70215 6.00195 -13.2051q0 -6.70215 -3.60059 -11.4043q-2.80176 -3.70117 -8.30371 -7.40234q-3.50098 -2.40137 -5.00195 -4.30176q-1.5 -1.90137 -1.5 -4.70215v-2.40039zM459.505 528q-2.00098 0 -2.00098 1.90039v10.8047q0 1.90039 2.00098 1.90039
h10.9033q2.10156 0 2.10156 -1.90039v-10.8047q0 -1.90039 -2.10156 -1.90039h-10.9033z" />
    <glyph glyph-name="Adieresis" unicode="&#xc4;" horiz-adv-x="655" 
d="M452 175h-259l-50 -156q-7 -19 -27 -19h-84q-16 0 -16 12q0 2 2 10l237 680q4 10 10 14t18 4h82q13 0 19 -4t9 -14l244 -682q1 -3 1 -7q0 -6 -4 -9.5t-11 -3.5h-92q-20 0 -27 19zM226 274h193l-11 33q-35 104 -85 267l-17 -56l-21 -66l-24 -71l-24 -73zM173 791
q-17 0 -17 16v86q0 16 17 16h87q18 0 18 -16v-86q0 -16 -18 -16h-87zM394 791q-17 0 -17 16v86q0 16 17 16h87q18 0 18 -16v-86q0 -16 -18 -16h-87z" />
    <glyph glyph-name="Odieresis" unicode="&#xd6;" horiz-adv-x="699" 
d="M577 94q-41 -50 -101.5 -77t-136.5 -27q-140 0 -215 87q-84 94 -84 273q0 87 21 157t62 120t101 76.5t136 26.5q139 0 216 -86q83 -96 83 -274q0 -176 -82 -276zM484 559.5q-44 63.5 -127 63.5q-90 0 -138 -69t-48 -200q0 -130 44 -193.5t127 -63.5q90 0 138 69t48 200
q0 130 -44 193.5zM195 791q-17 0 -17 16v86q0 16 17 16h87q18 0 18 -16v-86q0 -16 -18 -16h-87zM416 791q-17 0 -17 16v86q0 16 17 16h87q18 0 18 -16v-86q0 -16 -18 -16h-87z" />
    <glyph glyph-name="multiply" unicode="&#xd7;" horiz-adv-x="582" 
d="M290 422l132 131q6 6 12 6q5 0 11 -7l45 -44q5 -5 5 -12q0 -6 -5 -11l-131 -132l134 -134q5 -5 5 -10t-6 -13l-45 -45q-6 -6 -12 -6q-5 0 -11 6l-134 133l-131 -130q-4 -6 -11 -6q-4 0 -12 6l-44 45q-7 6 -7 11q0 6 6 12l131 131l-133 133q-6 6 -6 11q0 6 6 12l45 45
q7 6 13 6q5 0 10 -5z" />
    <glyph glyph-name="Udieresis" unicode="&#xdc;" horiz-adv-x="690" 
d="M618 286q0 -149 -67.5 -222.5t-209.5 -73.5q-139 0 -204 67.5t-65 208.5v435q0 19 20 19h87q20 0 20 -19v-432q0 -90 34.5 -131.5t111.5 -41.5q148 0 148 173v432q0 19 20 19h85q20 0 20 -19v-415zM190 791q-17 0 -17 16v86q0 16 17 16h87q18 0 18 -16v-86q0 -16 -18 -16
h-87zM411 791q-17 0 -17 16v86q0 16 17 16h87q18 0 18 -16v-86q0 -16 -18 -16h-87z" />
    <glyph glyph-name="germandbls" unicode="&#xdf;" horiz-adv-x="654" 
d="M402.5 370q15.5 -14 46.5 -30q35 -19 57 -28q69 -33 101 -81q17 -29 17 -69q0 -38 -14 -70t-40 -55q-25 -23 -59.5 -35t-74.5 -12q-106 0 -175 50q-9 6 -9 15q0 8 4 13l24 45q8 12 16 12q4 0 12 -3q35 -17 62.5 -25.5t57.5 -8.5q38 0 60.5 18t22.5 45q0 22 -15.5 37.5
t-45.5 29.5q-7 4 -57 26q-70 29 -101 79q-18 27 -18 69q0 25 9.5 45t26.5 41q18 19 34 32q22 18 36 30t23 26q10 13 10 31q0 37 -26.5 58.5t-69.5 21.5q-58 0 -93 -35q-36 -38 -36 -111v-515q0 -16 -17 -16h-86q-17 0 -17 16v520q0 115 65 175q32 32 81 48.5t109 16.5
q94 0 150 -48q56 -50 56 -128q0 -41 -19 -69.5t-52 -53.5l-19 -14q-27 -19 -39.5 -32t-12.5 -28q0 -19 15.5 -33z" />
    <glyph glyph-name="adieresis" unicode="&#xe4;" horiz-adv-x="578" 
d="M400 66q-24 -36 -62.5 -56t-83.5 -20q-51 0 -91.5 19t-67.5 55q-55 72 -55 190q0 65 17.5 118.5t49.5 91.5q30 36 71 55t87 19q41 0 77.5 -17.5t55.5 -44.5l3 34q1 11 5.5 14.5t16.5 3.5h66q19 0 19 -16v-30q-1 -14 -1 -47v-55q-1 -20 -1 -58v-95q0 -73 8 -145
q1 -25 5 -45l2 -21q0 -16 -17 -16h-67q-16 0 -22 15q-10 22 -15 51zM386 379q-19 26 -45 40.5t-56 14.5q-57 0 -89 -45.5t-32 -129.5q0 -74 26 -117q29 -49 88 -49q21 0 40 8.5t32 23.5q19 20 27.5 52t8.5 69v133zM124 612q-17 0 -17 16v86q0 16 17 16h87q18 0 18 -16v-86
q0 -16 -18 -16h-87zM345 612q-17 0 -17 16v86q0 16 17 16h87q18 0 18 -16v-86q0 -16 -18 -16h-87z" />
    <glyph glyph-name="odieresis" unicode="&#xf6;" horiz-adv-x="570" 
d="M101 58.5q-61 68.5 -61 194.5q0 138 66.5 211.5t187.5 73.5q114 0 175 -68.5t61 -194.5q0 -138 -66.5 -211.5t-187.5 -73.5q-114 0 -175 68.5zM373 138q33 44 33 130q0 78 -26 119q-30 47 -89 47q-61 0 -94 -44t-33 -130q0 -77 26 -118q30 -48 89 -48q61 0 94 44z
M130 612q-17 0 -17 16v86q0 16 17 16h87q18 0 18 -16v-86q0 -16 -18 -16h-87zM351 612q-17 0 -17 16v86q0 16 17 16h87q18 0 18 -16v-86q0 -16 -18 -16h-87z" />
    <glyph glyph-name="divide" unicode="&#xf7;" horiz-adv-x="582" 
d="M242 502q-20 0 -20 19v96q0 19 20 19h97q21 0 21 -19v-96q0 -19 -21 -19h-97zM57 305q-16 0 -16 17v63q0 17 16 17h468q16 0 16 -17v-63q0 -17 -16 -17h-468zM242 71q-20 0 -20 19v96q0 19 20 19h97q21 0 21 -19v-96q0 -19 -21 -19h-97z" />
    <glyph glyph-name="udieresis" unicode="&#xfc;" horiz-adv-x="583" 
d="M335 7.5q-40 -17.5 -87 -17.5q-89 0 -137 54q-25 28 -36 66.5t-11 97.5v304q0 16 17 16h86q17 0 17 -16v-265q0 -55 4 -80q4 -24 17 -42q23 -26 76 -26q22 0 44.5 6t36.5 17q14 9 20 22t8 37q2 26 2 49v63v219q0 16 18 16h85q17 0 17 -16v-313q0 -36 2 -90l1 -27l2 -42
l1 -24q0 -16 -18 -16h-77q-9 0 -13 3.5t-6 12.5l-4 38q-25 -29 -65 -46.5zM137 612q-17 0 -17 16v86q0 16 17 16h87q18 0 18 -16v-86q0 -16 -18 -16h-87zM358 612q-17 0 -17 16v86q0 16 17 16h87q18 0 18 -16v-86q0 -16 -18 -16h-87z" />
    <glyph glyph-name="circumflex" unicode="&#x2c6;" 
d="M332 641q6 -6 6 -11t-6 -11l-33 -33q-5 -5 -10 -5q-6 0 -10 4l-104 91l-105 -91q-4 -4 -10 -4q-5 0 -10 5l-33 33q-6 6 -6 11q0 4 6 10l91 97q9 9 15 12t17 3h70q11 0 17 -3t15 -12z" />
    <glyph glyph-name="caron" unicode="&#x2c7;" 
d="M242 605q-9 -9 -15 -12t-17 -3h-70q-11 0 -17 3t-15 12l-91 97q-6 6 -6 10q0 5 6 11l33 33q6 6 11 6q4 0 9 -5l105 -91l104 91q5 5 10 5q4 0 10 -6l33 -33q6 -6 6 -11t-6 -11z" />
    <glyph glyph-name="dotaccent" unicode="&#x2d9;" 
d="M131 610q-17 0 -17 16v86q0 16 17 16h87q18 0 18 -16v-86q0 -16 -18 -16h-87z" />
    <glyph glyph-name="ring" unicode="&#x2da;" 
d="M100 616q-32 30 -32 73q0 21 8.5 40t23.5 33q31 29 75 29q43 0 75 -29q31 -29 31 -73q0 -42 -31 -73q-32 -30 -75 -30q-45 0 -75 30zM203 660q11 12 11 29t-11 28.5t-28 11.5q-18 0 -29.5 -11t-11.5 -29t12 -29.5t29 -11.5t28 12z" />
    <glyph glyph-name="tilde" unicode="&#x2dc;" 
d="M233 616q-17 0 -31 5t-32 14q-5 2 -21.5 10t-32.5 8q-26 0 -57 -31q-4 -4 -7 -4q-4 0 -8 4l-36 39q-4 4 -4 8t5 11q50 61 107 61q16 0 30 -4.5t34 -13.5l15 -7.5t20 -8.5t18 -3q26 0 57 31q4 4 7 4q4 0 8 -4l36 -39q4 -4 4 -8t-5 -11q-50 -61 -107 -61z" />
    <glyph glyph-name="hungarumlaut" unicode="&#x2dd;" 
d="M-8 595q-9 0 -9 5q0 4 3 8l81 147q8 11 21 11h80q11 0 11 -6q0 -3 -3 -8l-105 -147q-4 -6 -7.5 -8t-11.5 -2h-60zM180 595q-9 0 -9 5q0 4 3 8l81 147q8 11 21 11h80q11 0 11 -6q0 -3 -3 -8l-105 -147q-4 -6 -7.5 -8t-11.5 -2h-60z" />
    <glyph glyph-name="endash" unicode="&#x2013;" horiz-adv-x="500" 
d="M486 255q0 -17 -16 -17h-440q-16 0 -16 17v57q0 17 16 17h440q16 0 16 -17v-57z" />
    <glyph glyph-name="emdash" unicode="&#x2014;" horiz-adv-x="1000" 
d="M986 255q0 -17 -16 -17h-940q-16 0 -16 17v57q0 17 16 17h940q16 0 16 -17v-57z" />
    <glyph glyph-name="quoteleft" unicode="&#x2018;" horiz-adv-x="244" 
d="M168 720q19 0 16 -18l-31 -152l25 -12q11 -5 15 -11.5t4 -21.5v-77q0 -19 -20 -19h-105q-21 0 -21 19v53q0 34 4.5 56t16.5 53l41 112q6 12 9.5 15t14.5 3h31z" />
    <glyph glyph-name="quoteright" unicode="&#x2019;" horiz-adv-x="244" 
d="M76 409q-19 0 -16 18l31 152l-25 12q-11 5 -15 11.5t-4 21.5v77q0 19 20 19h105q21 0 21 -19v-53q0 -34 -4.5 -56t-16.5 -53l-41 -112q-6 -12 -9.5 -15t-14.5 -3h-31z" />
    <glyph glyph-name="quotesinglbase" unicode="&#x201a;" horiz-adv-x="244" 
d="M76 -230q-19 0 -16 18l31 152l-25 12q-11 5 -15 11.5t-4 21.5v77q0 19 20 19h105q21 0 21 -19v-53q0 -34 -4.5 -56t-16.5 -53l-41 -112q-6 -12 -9.5 -15t-14.5 -3h-31z" />
    <glyph glyph-name="quotedblleft" unicode="&#x201c;" horiz-adv-x="444" 
d="M168 720q19 0 16 -18l-31 -152l25 -12q11 -5 15 -11.5t4 -21.5v-77q0 -19 -20 -19h-105q-21 0 -21 19v53q0 34 4.5 56t16.5 53l41 112q6 12 9.5 15t14.5 3h31zM368 720q19 0 16 -18l-31 -152l25 -12q11 -5 15 -11.5t4 -21.5v-77q0 -19 -20 -19h-105q-21 0 -21 19v53
q0 34 4.5 56t16.5 53l41 112q6 12 9.5 15t14.5 3h31z" />
    <glyph glyph-name="quotedblright" unicode="&#x201d;" horiz-adv-x="444" 
d="M76 409q-19 0 -16 18l31 152l-25 12q-11 5 -15 11.5t-4 21.5v77q0 19 20 19h105q21 0 21 -19v-53q0 -34 -4.5 -56t-16.5 -53l-41 -112q-6 -12 -9.5 -15t-14.5 -3h-31zM276 409q-19 0 -16 18l31 152l-25 12q-11 5 -15 11.5t-4 21.5v77q0 19 20 19h105q21 0 21 -19v-53
q0 -34 -4.5 -56t-16.5 -53l-41 -112q-6 -12 -9.5 -15t-14.5 -3h-31z" />
    <glyph glyph-name="quotedblbase" unicode="&#x201e;" horiz-adv-x="444" 
d="M76 -230q-19 0 -16 18l31 152l-25 12q-11 5 -15 11.5t-4 21.5v77q0 19 20 19h105q21 0 21 -19v-53q0 -34 -4.5 -56t-16.5 -53l-41 -112q-6 -12 -9.5 -15t-14.5 -3h-31zM276 -230q-19 0 -16 18l31 152l-25 12q-11 5 -15 11.5t-4 21.5v77q0 19 20 19h105q21 0 21 -19v-53
q0 -34 -4.5 -56t-16.5 -53l-41 -112q-6 -12 -9.5 -15t-14.5 -3h-31z" />
    <glyph glyph-name="bullet" unicode="&#x2022;" horiz-adv-x="370" 
d="M96 241q-36 0 -36 33v175q0 34 36 34h176q38 0 38 -34v-175q0 -33 -38 -33h-176z" />
    <glyph glyph-name="ellipsis" unicode="&#x2026;" horiz-adv-x="720" 
d="M67 0q-20 0 -20 19v104q0 19 20 19h105q21 0 21 -19v-104q0 -19 -21 -19h-105zM307 0q-20 0 -20 19v104q0 19 20 19h105q21 0 21 -19v-104q0 -19 -21 -19h-105zM547 0q-20 0 -20 19v104q0 19 20 19h105q21 0 21 -19v-104q0 -19 -21 -19h-105z" />
    <glyph glyph-name="perthousand" unicode="&#x2030;" horiz-adv-x="1329" 
d="M98 368q-48 53 -48 149q0 103 47 158t130 55q77 0 122 -49q47 -52 47 -149q0 -103 -47 -158t-130 -55q-76 0 -121 49zM364 9q-4 -9 -7.5 -12t-12.5 -3h-75q-9 0 -12.5 4t0.5 12l322 702q4 9 7.5 12t12.5 3h75q9 0 12.5 -4t-0.5 -12zM275.5 432.5q18.5 32.5 18.5 95.5
q0 121 -68 121q-36 0 -55 -32.5t-19 -95.5q0 -121 68 -121q37 0 55.5 32.5zM591 39q-48 53 -48 149q0 103 47 158t130 55q77 0 122 -49q47 -52 47 -149q0 -103 -47 -158t-130 -55q-76 0 -121 49zM981 39q-48 53 -48 149q0 103 47 158t130 55q77 0 122 -49q47 -52 47 -149
q0 -103 -47 -158t-130 -55q-76 0 -121 49zM768.5 103.5q18.5 32.5 18.5 95.5q0 121 -68 121q-36 0 -55 -32.5t-19 -95.5q0 -121 68 -121q37 0 55.5 32.5zM1158.5 103.5q18.5 32.5 18.5 95.5q0 121 -68 121q-36 0 -55 -32.5t-19 -95.5q0 -121 68 -121q37 0 55.5 32.5z" />
    <glyph glyph-name="guilsinglleft" unicode="&#x2039;" horiz-adv-x="315" 
d="M54 270q-6 7 -8 13.5t-2 17.5v5q0 11 2 17t8 13l124 181q10 14 18 14q3 0 15 -5l44 -23q12 -6 12 -15q0 -7 -6 -16l-104 -169l104 -169q6 -9 6 -16q0 -9 -12 -15l-44 -23q-12 -5 -15 -5q-8 0 -18 14z" />
    <glyph glyph-name="guilsinglright" unicode="&#x203a;" horiz-adv-x="315" 
d="M137 89q-10 -14 -18 -14q-3 0 -15 5l-44 23q-12 6 -12 15q0 7 6 16l104 169l-104 169q-6 9 -6 16q0 9 12 15l44 23q12 5 15 5q8 0 18 -14l124 -181q6 -7 8 -13t2 -17v-5q0 -11 -2 -17.5t-8 -13.5z" />
    <glyph glyph-name="fraction" unicode="&#x2044;" horiz-adv-x="383" 
d="M84 9q-4 -9 -7.5 -12t-12.5 -3h-75q-9 0 -12.5 4t0.5 12l322 702q4 9 7.5 12t12.5 3h75q9 0 12.5 -4t-0.5 -12z" />
    <glyph glyph-name="Euro" unicode="&#x20ac;" horiz-adv-x="583" 
d="M444 259q0 -17 -16 -17h-185q31 -144 166 -144q50 0 116 24q9 3 15 3q8 0 12 -9l26 -55q4 -10 4 -13q0 -8 -12 -16q-76 -42 -181 -42q-112 0 -183 66t-93 186h-65q-16 0 -16 17v48q0 17 16 17h56v28v20q0 12 1 19h-51q-16 0 -16 17v48q0 17 16 17h62q25 120 96 186
q76 71 188 71q105 0 171 -48q11 -8 11 -18q0 -5 -3 -11l-28 -51q-7 -13 -19 -13q-4 0 -10 3q-32 18 -55 25.5t-57 7.5q-131 0 -167 -152h191q16 0 16 -17v-48q0 -17 -16 -17h-201q-1 -5 -1 -17v-17v-33h196q16 0 16 -17v-48z" />
    <glyph glyph-name="uni2116" unicode="&#x2116;" horiz-adv-x="1106" 
d="M304 325q-42 65 -71 115q-32 56 -44 79l4 -107q1 -21 1 -62v-57v-274q0 -19 -20 -19h-78q-20 0 -20 19v682q0 19 20 19h69q14 0 21.5 -4t14.5 -14l194 -307l39 -62q26 -40 55 -91l21 -41q-3 84 -3 107q-1 20 -1 61v57v275q0 19 20 19h78q20 0 20 -19v-682q0 -19 -20 -19
h-69q-14 0 -21.5 4t-13.5 14zM737.5 303.5q-47.5 52.5 -47.5 148.5q0 104 51 160t144 56q86 0 134 -52.5t48 -148.5q0 -104 -51 -160t-144 -56q-87 0 -134.5 52.5zM937 375.5q22 29.5 22 87.5q0 51 -18.5 80.5t-58.5 29.5t-62.5 -29.5t-22.5 -86.5q0 -50 19 -80.5t58 -30.5
q41 0 63 29.5z" />
    <glyph glyph-name="trademark" unicode="&#x2122;" horiz-adv-x="860" 
d="M219 332q0 -15 -14 -15h-63q-14 0 -14 15v312h-97q-15 0 -15 14v48q0 14 15 14h285q15 0 15 -14v-48q0 -14 -15 -14h-97v-312zM800 331q0 -7 -3 -10.5t-11 -3.5h-59q-15 0 -15 15l-5 146q-1 28 -1 83v31q-14 -38 -43 -110l-35 -86q-3 -8 -7 -11t-13 -3h-52q-9 0 -13 3
t-7 11l-36 82q-13 29 -43 109l1 -40q0 -39 -3 -78l-6 -137q0 -15 -15 -15h-57q-8 0 -11 3.5t-3 10.5l19 372q1 10 5 13.5t12 3.5h71q11 0 15 -3t8 -12l59 -140q20 -45 32 -83q13 42 30 83l58 140q4 9 8 12t15 3h71q8 0 12 -3.5t5 -13.5z" />
    <glyph glyph-name="minus" unicode="&#x2212;" horiz-adv-x="582" 
d="M57 305q-16 0 -16 17v63q0 17 16 17h468q16 0 16 -17v-63q0 -17 -16 -17h-468z" />
    <glyph glyph-name="radical" unicode="&#x221a;" horiz-adv-x="655" 
d="M58 544q0 11 3.5 15t13.5 4h121q16 0 23 -5t12 -22l121 -371l224 734q5 15 17 15h87q20 0 15 -15l-285 -887q-4 -12 -20 -12h-83q-15 0 -20 12l-155 456h-57q-10 0 -13.5 4t-3.5 15v57z" />
    <glyph glyph-name="infinity" unicode="&#x221e;" horiz-adv-x="815" 
d="M100 202q-50 45 -50 121q0 36 12.5 67t35.5 53q48 46 121 46q53 0 98.5 -25t91.5 -75q43 46 88.5 72t98.5 26q36 0 67 -11t54 -31q48 -45 48 -120q0 -78 -52 -122q-24 -21 -55 -31.5t-65 -10.5q-50 0 -92.5 22.5t-91.5 74.5q-89 -99 -192 -99q-69 0 -117 43zM287.5 271
q28.5 19 56.5 54q-33 37 -59.5 56t-61.5 19t-56.5 -20t-21.5 -54t22.5 -54t57.5 -20q34 0 62.5 19zM644 273q23 21 23 55q0 32 -24.5 51t-58.5 19q-33 0 -59 -19t-54 -54q35 -41 59 -57t53 -16q38 0 61 21z" />
    <glyph glyph-name="approxequal" unicode="&#x2248;" horiz-adv-x="582" 
d="M462 525q2 9 6.5 11.5t13.5 0.5l46 -11q11 -3 13 -7.5t0 -11.5q-12 -57 -51.5 -91.5t-95.5 -34.5q-35 0 -62 10t-56 28q-6 3 -25 15t-35.5 17.5t-31.5 5.5q-48 0 -65 -56q-2 -9 -6.5 -11.5t-13.5 -0.5l-46 11q-11 3 -13 7.5t0 11.5q12 57 51.5 91.5t95.5 34.5
q33 0 60 -10t57 -28q36 -21 53.5 -29.5t39.5 -8.5q48 0 65 56zM462 299q2 9 6.5 11.5t13.5 0.5l46 -11q11 -3 13 -7.5t0 -11.5q-12 -57 -51.5 -91.5t-95.5 -34.5q-35 0 -62 10t-56 28q-6 3 -25 15t-35.5 17.5t-31.5 5.5q-48 0 -65 -56q-2 -9 -6.5 -11.5t-13.5 -0.5l-46 11
q-11 3 -13 7.5t0 11.5q12 57 51.5 91.5t95.5 34.5q33 0 60 -10t57 -28q36 -21 53.5 -29.5t39.5 -8.5q48 0 65 56z" />
    <glyph glyph-name="notequal" unicode="&#x2260;" horiz-adv-x="582" 
d="M161 192h-104q-16 0 -16 17v63q0 17 16 17h154l66 129h-220q-16 0 -16 17v63q0 17 16 17h270l51 98q3 6 6.5 8.5t11.5 2.5h74q5 0 7 -3.5t-1 -9.5l-50 -96h99q16 0 16 -17v-63q0 -17 -16 -17h-149l-66 -129h215q16 0 16 -17v-63q0 -17 -16 -17h-265l-50 -97
q-3 -6 -6.5 -8.5t-11.5 -2.5h-74q-5 0 -7 3.5t1 9.5z" />
    <glyph glyph-name="lessequal" unicode="&#x2264;" horiz-adv-x="582" 
d="M54 465q0 11 3 16t10 9l402 234q5 4 12 4q8 0 12 -9l28 -55q4 -7 4 -14q0 -8 -9 -13l-339 -193l339 -193q9 -4 9 -13q0 -7 -4 -14l-28 -55q-4 -9 -12 -9q-7 0 -12 4l-402 234q-7 4 -10 9t-3 16v42zM57 0q-16 0 -16 17v63q0 17 16 17h468q16 0 16 -17v-63q0 -17 -16 -17
h-468z" />
    <glyph glyph-name="greaterequal" unicode="&#x2265;" horiz-adv-x="582" 
d="M528 423q0 -11 -3 -16t-10 -9l-402 -234q-5 -4 -12 -4t-12 9l-28 55q-4 7 -4 14q0 9 9 13l339 193l-339 193q-9 5 -9 13q0 7 4 14l28 55q5 9 12 9t12 -4l402 -234q7 -4 10 -9t3 -16v-42zM57 0q-16 0 -16 17v63q0 17 16 17h468q16 0 16 -17v-63q0 -17 -16 -17h-468z" />
    <glyph glyph-name="uniF6C3" unicode="&#xf6c3;" horiz-adv-x="0" 
d="M-203 -333q-11 0 -14 4t-1 13l18 132l-20 10q-11 6 -14.5 11t-3.5 16v70q0 18 18 18h93q18 0 18 -18v-38q0 -39 -3 -55q-5 -27 -14 -54l-29 -92q-4 -10 -8 -13.5t-15 -3.5h-25z" />
    <glyph glyph-name="g128" 
d="M209 780q-8 0 -12 2t-10 8l-117 150q-3 5 -3 8q0 7 11 7h89q8 0 12 -2.5t8 -8.5l94 -151q3 -4 3 -8q0 -5 -9 -5h-66z" />
    <glyph glyph-name="g129" 
d="M75 780q-9 0 -9 5q0 4 3 8l94 151q4 6 8 8.5t12 2.5h89q11 0 11 -7q0 -3 -3 -8l-117 -150q-6 -6 -10 -8t-12 -2h-66z" />
    <glyph glyph-name="g130" 
d="M20 791q-17 0 -17 16v86q0 16 17 16h87q18 0 18 -16v-86q0 -16 -18 -16h-87zM241 791q-17 0 -17 16v86q0 16 17 16h87q18 0 18 -16v-86q0 -16 -18 -16h-87z" />
    <glyph glyph-name="g131" 
d="M332 826q6 -6 6 -11t-6 -11l-33 -33q-5 -5 -10 -5q-6 0 -10 4l-104 91l-105 -91q-4 -4 -10 -4q-5 0 -10 5l-33 33q-6 6 -6 11q0 4 6 10l91 97q9 9 15 12t17 3h70q11 0 17 -3t15 -12z" />
    <glyph glyph-name="g135" 
d="M131 807q-17 0 -17 16v86q0 16 17 16h87q18 0 18 -16v-86q0 -16 -18 -16h-87z" />
    <glyph glyph-name="g136" 
d="M100 803q-32 30 -32 73q0 21 8.5 40t23.5 33q31 29 75 29q43 0 75 -29q31 -29 31 -73q0 -42 -31 -73q-32 -30 -75 -30q-45 0 -75 30zM203 847q11 12 11 29t-11 28.5t-28 11.5q-18 0 -29.5 -11t-11.5 -29t12 -29.5t29 -11.5t28 12z" />
    <glyph glyph-name="g137" 
d="M-8 783q-9 0 -9 5q0 4 3 8l81 147q8 11 21 11h80q11 0 11 -6q0 -3 -3 -8l-105 -147q-4 -6 -7.5 -8t-11.5 -2h-60zM180 783q-9 0 -9 5q0 4 3 8l81 147q8 11 21 11h80q11 0 11 -6q0 -3 -3 -8l-105 -147q-4 -6 -7.5 -8t-11.5 -2h-60z" />
    <glyph glyph-name="g138" 
d="M242 797q-9 -9 -15 -12t-17 -3h-70q-11 0 -17 3t-15 12l-91 97q-6 6 -6 10q0 5 6 11l33 33q6 6 11 6q4 0 9 -5l105 -91l104 91q5 5 10 5q4 0 10 -6l33 -33q6 -6 6 -11t-6 -11z" />
    </font>
</defs>
</svg>
